<svg width="1009" height="1009" viewBox="0 0 1009 1009" fill="none"
	xmlns="http://www.w3.org/2000/svg">
	<path d="M314.844 50.3635L284.994 65.8946L306.623 91.6705L526.162 353.306L547.795 379.087L568.272 352.379C594.353 318.362 609.882 275.764 609.882 229.63C609.882 118.15 519.39 27.6592 407.907 27.6592C374.403 27.6592 342.727 35.8551 314.844 50.3635Z" fill="white" stroke="white" stroke-width="54"/>
	<path d="M604.049 765.211L604.052 765.216L604.049 765.211ZM604.049 765.211C603.715 764.806 603.457 764.492 603.278 764.273L603.044 763.988L602.99 763.922L602.979 763.908L602.978 763.907C602.978 763.907 602.978 763.907 602.949 763.931L604.049 765.211ZM302.14 413.786L288.272 397.644L269.337 407.356C171.195 457.697 103.871 559.956 103.871 677.889C103.871 845.599 240.013 981.741 407.724 981.741C509.39 981.741 599.435 931.69 654.556 855.047L667.311 837.311L652.628 821.135C627.827 793.812 609.542 771.869 604.424 765.666L604.429 765.662L602.87 763.775L602.838 763.802L302.14 413.786Z" fill="white" stroke="white" stroke-width="54"/>
	<path d="M825.534 761.14C814.085 764.526 805.794 774.109 803.82 785.529C797.393 771.709 792.055 758.942 786.663 745.998L786.204 744.897C774.525 716.862 762.402 687.763 738.957 647.469L738.956 647.468C699.984 580.492 639.369 505.439 616.399 477.735L616.348 477.674L616.297 477.613L315.245 118.833L294.746 136.034C315.245 118.833 315.236 118.823 315.227 118.812L315.208 118.79L315.168 118.741C315.139 118.707 315.107 118.67 315.073 118.63C315.004 118.549 314.924 118.456 314.832 118.35C314.648 118.138 314.419 117.877 314.144 117.571C313.596 116.961 312.865 116.169 311.959 115.236C310.154 113.375 307.619 110.915 304.419 108.189C298.116 102.821 288.71 95.9757 276.743 90.8591C264.66 85.6929 249.495 82.1045 232.34 84.1008C215.004 86.1182 197.549 93.6225 180.804 107.674C164.058 121.725 153.636 137.611 148.639 154.334C143.694 170.882 144.595 186.439 147.585 199.236C150.545 211.91 155.654 222.362 159.846 229.501C161.974 233.126 163.957 236.049 165.475 238.15C166.237 239.204 166.89 240.061 167.396 240.707C167.65 241.031 167.867 241.302 168.043 241.52C168.132 241.629 168.21 241.724 168.277 241.806C168.311 241.847 168.342 241.884 168.371 241.918L168.411 241.967L168.43 241.989C168.439 242 168.448 242.01 188.943 224.813L168.448 242.011L217.459 300.42L217.567 300.549L217.676 300.675L623.189 771.966C623.249 772.041 623.317 772.126 623.391 772.22C623.74 772.655 624.247 773.288 624.904 774.103C626.218 775.733 628.133 778.094 630.577 781.069C635.465 787.015 642.483 795.429 651.061 805.373C668.173 825.209 691.704 851.373 717.069 876.257C742.131 900.844 770.25 925.447 796.476 941.097C809.503 948.87 823.793 955.499 838.189 957.944C853.149 960.485 870.422 958.727 884.82 946.583L884.821 946.583C898.019 935.451 903.092 920.048 904.384 906.159C905.664 892.397 903.546 877.693 899.948 863.619C892.72 835.344 877.947 803.669 860.898 774.989L860.875 774.95L860.852 774.912C853.6 762.803 839.079 757.144 825.553 761.134L825.544 761.137L825.534 761.14Z" fill="white" stroke="white" stroke-width="54"/>
	<path d="M751.303 602.699C825.878 602.699 886.333 542.244 886.333 467.669C886.333 393.094 825.878 332.64 751.303 332.64C676.728 332.64 616.273 393.094 616.273 467.669C616.273 542.244 676.728 602.699 751.303 602.699Z" fill="white" stroke="white" stroke-width="54"/>
	<path fill-rule="evenodd" clip-rule="evenodd" d="M327.306 74.3152C351.438 61.7589 378.85 54.6592 407.907 54.6592C504.479 54.6592 582.882 133.062 582.882 229.63C582.882 269.611 569.444 306.476 546.845 335.95L327.306 74.3152Z" fill="#F2BD0D"/>
	<path fill-rule="evenodd" clip-rule="evenodd" d="M281.659 431.38L583.393 782.602C588.4 788.676 607.132 811.184 632.636 839.282C582.363 909.185 500.323 954.741 407.724 954.741C254.925 954.741 130.871 830.688 130.871 677.889C130.871 570.487 192.162 477.287 281.659 431.38ZM583.393 782.602C582.518 781.54 582.06 780.979 582.06 780.979L583.619 782.865L583.393 782.602Z" fill="#1E3A8A"/>
	<path fill-rule="evenodd" clip-rule="evenodd" d="M830.372 790.948C830.308 789.153 831.469 787.541 833.192 787.031C834.917 786.522 836.765 787.244 837.689 788.785C870.266 843.588 891.471 905.653 867.414 925.943C814.809 970.309 643.993 754.749 643.993 754.749L238.143 283.065L189.131 224.655C189.131 224.655 145.443 172.591 198.159 128.357C250.874 84.1237 294.562 136.188 294.562 136.188L595.614 494.968C618.541 522.621 677.874 596.18 715.62 661.048C761.233 739.44 761.9 772.859 808.897 853.11C810.328 855.667 813.063 857.217 815.993 857.128C818.922 857.041 821.561 855.329 822.835 852.689C827.256 842.586 831.73 824.017 830.372 790.948Z" fill="#EBC4BC"/>
	<path d="M751.303 575.699C810.966 575.699 859.333 527.332 859.333 467.669C859.333 408.006 810.966 359.64 751.303 359.64C691.64 359.64 643.273 408.006 643.273 467.669C643.273 527.332 691.64 575.699 751.303 575.699Z" fill="#60A5FA"/>
</svg>
