<svg width="1500" height="1500" viewBox="0 0 1500 1500" fill="none" xmlns="http://www.w3.org/2000/svg">
<g clip-path="url(#clip0_805:17382)">
<rect width="1500" height="1500" fill="white"/>
<path d="M-71.2373 1573.71C-99.9913 1573.71 -109.023 1646.29 -109.023 1666.9C-109.023 1687.51 -92.1058 1704.21 -71.2373 1704.21C-50.3688 1704.21 -33.4516 1687.51 -33.4516 1666.9C-33.4516 1646.29 -42.4833 1573.71 -71.2373 1573.71Z" stroke="#EEF2F6" stroke-width="3"/>
<path d="M24.2407 1502.46C-4.51326 1502.46 -13.545 1575.04 -13.545 1595.65C-13.545 1616.26 3.37225 1632.96 24.2407 1632.96C45.1092 1632.96 62.0264 1616.26 62.0264 1595.65C62.0264 1575.04 52.9947 1502.46 24.2407 1502.46Z" stroke="#EEF2F6" stroke-width="3"/>
<path d="M77.878 1528.52C77.878 1507.92 86.9097 1435.34 115.664 1435.34C144.418 1435.34 153.449 1507.92 153.449 1528.52C153.449 1549.13 136.532 1565.84 115.664 1565.84C94.7952 1565.84 77.878 1549.13 77.878 1528.52Z" stroke="#EEF2F6" stroke-width="3"/>
<path d="M19.1481 1478.4C22.6744 1449.37 -47.0291 1431.35 -67.1339 1428.83C-87.2386 1426.3 -105.611 1441.33 -108.171 1462.4C-110.73 1483.47 -96.5063 1502.59 -76.4015 1505.12C-56.2968 1507.65 15.6219 1507.43 19.1481 1478.4Z" stroke="#EEF2F6" stroke-width="3"/>
<path d="M-162.612 1500.08C-142.507 1502.6 -72.8036 1520.62 -76.3299 1549.65C-79.8561 1578.68 -151.775 1578.9 -171.88 1576.37C-191.984 1573.84 -206.208 1554.72 -203.649 1533.65C-201.089 1512.58 -182.717 1497.55 -162.612 1500.08Z" stroke="#EEF2F6" stroke-width="3"/>
<path d="M110.571 1411.28C114.097 1382.25 44.3939 1364.23 24.2891 1361.7C4.18437 1359.17 -14.1884 1374.2 -16.7476 1395.27C-19.3068 1416.34 -5.0833 1435.47 15.0215 1438C35.1262 1440.52 107.045 1440.31 110.571 1411.28Z" stroke="#EEF2F6" stroke-width="3"/>
<path d="M1428.76 1573.71C1400.01 1573.71 1390.98 1646.29 1390.98 1666.9C1390.98 1687.51 1407.89 1704.21 1428.76 1704.21C1449.63 1704.21 1466.55 1687.51 1466.55 1666.9C1466.55 1646.29 1457.52 1573.71 1428.76 1573.71Z" stroke="#EEF2F6" stroke-width="3"/>
<path d="M1524.24 1502.46C1495.49 1502.46 1486.46 1575.04 1486.46 1595.65C1486.46 1616.26 1503.37 1632.96 1524.24 1632.96C1545.11 1632.96 1562.03 1616.26 1562.03 1595.65C1562.03 1575.04 1552.99 1502.46 1524.24 1502.46Z" stroke="#EEF2F6" stroke-width="3"/>
<path d="M1577.88 1528.52C1577.88 1507.92 1586.91 1435.34 1615.66 1435.34C1644.42 1435.34 1653.45 1507.92 1653.45 1528.52C1653.45 1549.13 1636.53 1565.84 1615.66 1565.84C1594.8 1565.84 1577.88 1549.13 1577.88 1528.52Z" stroke="#EEF2F6" stroke-width="3"/>
<path d="M1519.15 1478.4C1522.67 1449.37 1452.97 1431.35 1432.87 1428.83C1412.76 1426.3 1394.39 1441.33 1391.83 1462.4C1389.27 1483.47 1403.49 1502.59 1423.6 1505.12C1443.7 1507.65 1515.62 1507.43 1519.15 1478.4Z" stroke="#EEF2F6" stroke-width="3"/>
<path d="M1337.39 1500.08C1357.49 1502.6 1427.2 1520.62 1423.67 1549.65C1420.14 1578.68 1348.23 1578.9 1328.12 1576.37C1308.02 1573.84 1293.79 1554.72 1296.35 1533.65C1298.91 1512.58 1317.28 1497.55 1337.39 1500.08Z" stroke="#EEF2F6" stroke-width="3"/>
<path d="M1610.57 1411.28C1614.1 1382.25 1544.39 1364.23 1524.29 1361.7C1504.18 1359.17 1485.81 1374.2 1483.25 1395.27C1480.69 1416.34 1494.92 1435.47 1515.02 1438C1535.13 1440.52 1607.04 1440.31 1610.57 1411.28Z" stroke="#EEF2F6" stroke-width="3"/>
<path fill-rule="evenodd" clip-rule="evenodd" d="M-233.708 694.186C-211.95 679.972 -180.527 689.684 -152.58 691.38C-132.757 692.582 -114.089 700.58 -94.2146 702.649C-67.0889 705.474 -38.9592 690.186 -14.8556 705.721C9.09513 721.158 22.0441 752.165 23.7122 778.654C25.3042 803.936 4.40177 820.87 -6.259 842.237C-15.574 860.906 -21.1972 880.898 -34.9884 896.306C-51.9143 915.215 -68.1712 938.381 -94.9232 941.291C-122.377 944.278 -152.944 930.869 -176.041 911.649C-197.839 893.511 -201.334 863.902 -216.361 840.239C-232.679 814.543 -264.632 795.391 -268.029 766.795C-271.47 737.823 -256.534 709.096 -233.708 694.186Z" stroke="#EEF2F6" stroke-width="3"/>
<path d="M-171.026 433.192C-134.354 355.884 -150.673 230.012 -48.7279 275.54C53.2169 321.068 -18.8995 377.845 24.6156 458.01C68.1306 538.175 65.4987 654.406 -37.8496 626.732C-141.198 599.058 -198.478 683.329 -263.496 611.377C-328.514 539.425 -207.699 510.5 -171.026 433.192Z" stroke="#EEF2F6" stroke-width="3"/>
<path d="M-80.6386 1126.05C-80.5574 1163.43 -9.04664 1129.87 1.13403 1080.67C11.3147 1031.47 -74.1835 989.889 -58.2754 1044.58C-42.3673 1099.28 -80.7197 1088.67 -80.6386 1126.05Z" stroke="#EEF2F6" stroke-width="3"/>
<path d="M642.168 1424.44C544.294 1533.56 430.934 1299.38 352.048 1480.69C273.162 1662 424.486 1621.88 545.953 1596.19C667.42 1570.5 855.243 1636.31 870.91 1519.13C886.577 1401.94 740.043 1315.31 642.168 1424.44Z" stroke="#EEF2F6" stroke-width="3"/>
<path d="M729.356 472.5C618.579 416.063 787.233 246.75 618.579 233.625C449.926 220.5 475.816 386.468 546.694 462.75C617.573 539.032 573.789 663.75 736.37 645.843C834.285 635.059 841.436 529.601 729.356 472.5Z" stroke="#EEF2F6" stroke-width="3"/>
<path d="M921.909 1448.16C971.348 1539.29 844.463 1723.24 976.287 1734.46C1108.11 1745.67 1077.2 1605.46 1050.24 1529.34C1023.27 1453.23 1141.83 1422.08 1014.72 1317.41C945.771 1260.64 855.481 1325.73 921.909 1448.16Z" stroke="#EEF2F6" stroke-width="3"/>
<path d="M172.226 1088.9C126.599 1151.53 71.14 1075.99 34.88 1177.21C-1.37995 1278.43 88.8612 1261.01 129.727 1211.14C170.592 1161.27 296.366 1198.52 274.889 1061.37C265.305 1000.18 213.143 1032.73 172.226 1088.9Z" stroke="#EEF2F6" stroke-width="3"/>
<path d="M975.608 442.688C1053.39 598.313 894.875 632.437 958.835 715.875C1022.79 799.313 1090.99 619.687 1163.43 551.625C1255.23 465.375 1252.46 330.937 1134.12 285.562C1049.2 252.998 923.256 337.944 975.608 442.688Z" stroke="#EEF2F6" stroke-width="3"/>
<path fill-rule="evenodd" clip-rule="evenodd" d="M498.086 549.991C507.884 549.508 518.384 549.389 526.439 553.248C534.557 557.138 537.71 564.054 540.874 570.493C544.074 577.007 548.011 583.948 544.708 590.437C541.43 596.876 531.848 600.336 523.697 604.236C515.721 608.052 507.805 612.569 498.086 612.744C488.249 612.921 479.502 609.089 471.48 605.177C463.375 601.225 455.029 596.817 452.064 590.303C449.114 583.822 451.996 576.877 455.739 570.592C459.257 564.685 464.964 559.597 472.548 555.907C480.063 552.252 488.9 550.444 498.086 549.991Z" stroke="#EEF2F6" stroke-width="3"/>
<path fill-rule="evenodd" clip-rule="evenodd" d="M621.989 681.377C627.617 681.458 632.56 684.539 637.239 687.729C642.106 691.047 647.622 694.36 649.383 700.054C651.139 705.732 648.129 711.529 646.353 717.201C644.567 722.906 643.75 729.479 639.047 733.068C634.324 736.672 627.865 736.329 621.989 735.791C616.557 735.292 611.648 733.08 607.024 730.131C602.063 726.966 596.316 723.909 594.478 718.244C592.638 712.57 595.444 706.606 597.589 701.046C599.607 695.816 602.1 690.77 606.424 687.284C610.876 683.696 616.315 681.295 621.989 681.377Z" stroke="#EEF2F6" stroke-width="3"/>
<path fill-rule="evenodd" clip-rule="evenodd" d="M723.897 178.502C728.229 178.564 732.033 180.927 735.635 183.374C739.381 185.92 743.627 188.461 744.983 192.829C746.334 197.184 744.017 201.632 742.651 205.983C741.276 210.36 740.647 215.402 737.027 218.155C733.391 220.919 728.42 220.657 723.897 220.243C719.716 219.861 715.937 218.164 712.378 215.902C708.559 213.474 704.135 211.129 702.72 206.783C701.304 202.431 703.464 197.856 705.115 193.59C706.669 189.578 708.587 185.707 711.915 183.033C715.342 180.28 719.529 178.439 723.897 178.502Z" stroke="#EEF2F6" stroke-width="3"/>
<path fill-rule="evenodd" clip-rule="evenodd" d="M744.509 375.002C746.841 375.074 748.89 377.795 750.829 380.614C752.846 383.546 755.133 386.473 755.863 391.504C756.59 396.521 755.343 401.643 754.607 406.654C753.866 411.696 753.528 417.503 751.579 420.674C749.621 423.858 746.944 423.556 744.509 423.079C742.257 422.639 740.222 420.684 738.306 418.079C736.25 415.283 733.868 412.581 733.106 407.576C732.343 402.563 733.506 397.293 734.396 392.38C735.232 387.759 736.265 383.301 738.057 380.221C739.902 377.051 742.157 374.929 744.509 375.002Z" stroke="#EEF2F6" stroke-width="3"/>
<path fill-rule="evenodd" clip-rule="evenodd" d="M1049.01 1040.25C1051.26 1040.3 1053.25 1042.14 1055.12 1044.04C1057.08 1046.01 1059.29 1047.99 1060 1051.38C1060.7 1054.76 1059.5 1058.22 1058.78 1061.6C1058.07 1065 1057.74 1068.91 1055.85 1071.05C1053.95 1073.2 1051.36 1073 1049.01 1072.68C1046.83 1072.38 1044.85 1071.06 1043 1069.3C1041.01 1067.42 1038.7 1065.6 1037.96 1062.22C1037.23 1058.84 1038.35 1055.29 1039.21 1051.97C1040.02 1048.86 1041.02 1045.85 1042.76 1043.77C1044.54 1041.63 1046.73 1040.2 1049.01 1040.25Z" stroke="#EEF2F6" stroke-width="3"/>
<path fill-rule="evenodd" clip-rule="evenodd" d="M803.867 1282.57C806.695 1280.33 811.043 1280.71 815.328 1281.27C819.786 1281.86 824.561 1282.18 828.956 1285.87C833.34 1289.56 835.445 1295.28 838.081 1300.4C840.733 1305.56 844.401 1310.99 844.302 1315.69C844.203 1320.41 840.803 1322.78 837.569 1324.76C834.579 1326.59 830.785 1326.88 826.676 1326.48C822.267 1326.05 817.536 1326.02 813.12 1322.38C808.698 1318.73 806.389 1312.96 804.004 1307.77C801.761 1302.89 799.866 1297.96 799.842 1293.5C799.817 1288.9 801.015 1284.82 803.867 1282.57Z" stroke="#EEF2F6" stroke-width="3"/>
<path fill-rule="evenodd" clip-rule="evenodd" d="M352.288 596.395C355.117 594.162 359.464 594.534 363.75 595.099C368.208 595.686 372.983 596.004 377.378 599.701C381.762 603.387 383.867 609.111 386.503 614.233C389.155 619.386 392.823 624.816 392.724 629.517C392.625 634.239 389.225 636.609 385.991 638.588C383.001 640.418 379.207 640.706 375.098 640.306C370.689 639.876 365.958 639.85 361.542 636.207C357.12 632.559 354.811 626.789 352.426 621.602C350.183 616.723 348.288 611.793 348.264 607.327C348.239 602.727 349.437 598.647 352.288 596.395Z" stroke="#EEF2F6" stroke-width="3"/>
<path fill-rule="evenodd" clip-rule="evenodd" d="M1128.13 1377.53C1132.14 1375.83 1136.39 1376.07 1140.48 1376.46C1144.74 1376.87 1149.46 1377.07 1152.11 1379.81C1154.75 1382.55 1154.05 1386.84 1154.19 1390.68C1154.33 1394.53 1155.37 1398.59 1152.92 1402.13C1150.47 1405.69 1145.82 1407.5 1141.53 1409.02C1137.56 1410.42 1133.55 1410.67 1129.55 1410.4C1125.26 1410.12 1120.44 1410.14 1117.75 1407.43C1115.05 1404.72 1115.57 1400.4 1115.72 1396.51C1115.86 1392.86 1116.38 1389.16 1118.58 1385.8C1120.84 1382.34 1124.1 1379.25 1128.13 1377.53Z" stroke="#EEF2F6" stroke-width="3"/>
<path fill-rule="evenodd" clip-rule="evenodd" d="M1049.04 780.779C1055.55 780.969 1062.24 781.845 1067.46 785.809C1072.63 789.739 1074.95 796.089 1077.24 802.213C1079.64 808.656 1082.98 815.428 1080.98 822.012C1078.98 828.63 1072.43 832.34 1066.88 836.377C1061.36 840.389 1055.83 845.074 1049.04 845.244C1042.18 845.416 1035.77 841.802 1030.55 837.287C1025.61 833.021 1023.23 826.881 1020.77 820.802C1018.09 814.179 1013.91 807.442 1015.65 800.504C1017.43 793.434 1023.62 788.391 1029.84 784.716C1035.62 781.3 1042.35 780.585 1049.04 780.779Z" stroke="#EEF2F6" stroke-width="3"/>
<path fill-rule="evenodd" clip-rule="evenodd" d="M1316.54 1400.25C1321.29 1400.32 1326.05 1401.42 1329.87 1404.32C1333.66 1407.19 1336.1 1411.49 1337.45 1416.11C1338.78 1420.64 1339.03 1425.53 1337.39 1429.96C1335.8 1434.27 1332.31 1437.38 1328.62 1440.02C1324.99 1442.62 1320.97 1444.89 1316.54 1444.87C1312.11 1444.86 1308.01 1442.71 1304.5 1439.96C1301.06 1437.26 1298.64 1433.61 1296.98 1429.53C1295.18 1425.13 1293.57 1420.42 1294.65 1415.79C1295.77 1410.94 1298.92 1406.77 1302.93 1403.93C1306.88 1401.12 1311.73 1400.18 1316.54 1400.25Z" stroke="#EEF2F6" stroke-width="3"/>
<path fill-rule="evenodd" clip-rule="evenodd" d="M919.51 476.254C924.264 476.322 929.026 477.423 932.843 480.316C936.634 483.19 939.07 487.492 940.424 492.109C941.755 496.644 942.003 501.532 940.368 505.961C938.777 510.267 935.287 513.379 931.594 516.019C927.96 518.618 923.948 520.886 919.51 520.875C915.079 520.863 910.984 518.713 907.471 515.957C904.034 513.261 901.616 509.615 899.951 505.531C898.157 501.13 896.542 496.424 897.619 491.786C898.744 486.944 901.896 482.767 905.9 479.926C909.849 477.124 914.7 476.184 919.51 476.254Z" stroke="#EEF2F6" stroke-width="3"/>
<path fill-rule="evenodd" clip-rule="evenodd" d="M1322.35 212.45C1325.91 213.56 1329.44 215.258 1331.13 219.285C1332.84 223.381 1332.39 228.923 1331.49 234.266C1330.58 239.628 1328.97 245.032 1326.01 249.613C1322.95 254.34 1319.04 258.299 1314.83 260.046C1310.69 261.765 1306.78 260.777 1303.34 259.024C1300.03 257.342 1297.25 254.54 1295.77 250.353C1294.31 246.224 1294.14 241.145 1295.19 235.983C1296.21 230.972 1298.57 226.243 1301.51 222.153C1304.39 218.136 1307.83 214.911 1311.56 213.176C1315.31 211.427 1319 211.403 1322.35 212.45Z" stroke="#EEF2F6" stroke-width="3"/>
<path fill-rule="evenodd" clip-rule="evenodd" d="M1259.39 332.974C1261.6 330.336 1264.3 327.953 1268.35 328.107C1272.46 328.264 1277.05 330.881 1281.31 333.809C1285.58 336.748 1289.64 340.32 1292.52 344.727C1295.49 349.274 1297.5 354.259 1297.51 358.609C1297.53 362.891 1295.3 365.885 1292.58 368.17C1289.97 370.365 1286.59 371.647 1282.48 371.249C1278.43 370.858 1274.02 368.967 1269.96 365.984C1266.03 363.089 1262.81 359.141 1260.35 354.953C1257.92 350.84 1256.37 346.561 1256.2 342.632C1256.03 338.671 1257.31 335.465 1259.39 332.974Z" stroke="#EEF2F6" stroke-width="3"/>
<path fill-rule="evenodd" clip-rule="evenodd" d="M169.801 980.16C173.232 981.619 176.585 983.661 177.875 987.837C179.187 992.084 178.203 997.554 176.79 1002.78C175.372 1008.03 173.242 1013.24 169.855 1017.51C166.361 1021.91 162.084 1025.46 157.729 1026.78C153.443 1028.07 149.649 1026.7 146.388 1024.61C143.257 1022.61 140.766 1019.55 139.697 1015.23C138.642 1010.98 138.961 1005.9 140.502 1000.87C141.999 995.987 144.805 991.517 148.12 987.738C151.376 984.028 155.11 981.161 158.985 979.806C162.892 978.44 166.562 978.783 169.801 980.16Z" stroke="#EEF2F6" stroke-width="3"/>
<path fill-rule="evenodd" clip-rule="evenodd" d="M1306.27 117.498C1310.89 116.611 1315.82 116.229 1319.98 118.416C1324.24 120.657 1326.99 124.939 1328.9 129.394C1330.81 133.838 1332.04 138.794 1330.71 143.452C1329.43 147.972 1325.64 151.148 1321.92 153.97C1318.46 156.583 1314.51 158.049 1310.28 158.916C1305.59 159.88 1300.6 161.277 1296.26 159.233C1291.76 157.111 1288.55 152.696 1286.98 147.936C1285.48 143.411 1286.47 138.544 1287.92 134.001C1289.26 129.825 1291.63 126.163 1294.88 123.242C1298.13 120.32 1302 118.32 1306.27 117.498Z" stroke="#EEF2F6" stroke-width="3"/>
<path fill-rule="evenodd" clip-rule="evenodd" d="M354.376 160.501C358.829 160.449 363.043 162.68 366.38 165.701C369.508 168.532 370.917 172.622 372.245 176.675C373.587 180.769 375.406 185.076 374.075 189.174C372.746 193.262 368.732 195.525 365.307 198.027C361.915 200.506 358.531 203.238 354.376 203.566C350.03 203.91 345.468 202.747 342.144 199.86C338.932 197.071 337.979 192.6 336.935 188.423C335.956 184.51 335.35 180.529 336.332 176.617C337.362 172.51 339.448 168.765 342.568 165.978C345.906 162.997 349.947 160.552 354.376 160.501Z" stroke="#EEF2F6" stroke-width="3"/>
<path fill-rule="evenodd" clip-rule="evenodd" d="M1014.24 1115.25C1018.7 1115.2 1022.91 1117.43 1026.25 1120.45C1029.38 1123.28 1030.78 1127.37 1032.11 1131.42C1033.45 1135.52 1035.27 1139.83 1033.94 1143.92C1032.61 1148.01 1028.6 1150.28 1025.17 1152.78C1021.78 1155.26 1018.4 1157.99 1014.24 1158.32C1009.9 1158.66 1005.34 1157.5 1002.01 1154.61C998.799 1151.82 997.847 1147.35 996.802 1143.17C995.824 1139.26 995.217 1135.28 996.199 1131.37C997.229 1127.26 999.315 1123.52 1002.43 1120.73C1005.77 1117.75 1009.81 1115.3 1014.24 1115.25Z" stroke="#EEF2F6" stroke-width="3"/>
<path fill-rule="evenodd" clip-rule="evenodd" d="M692.455 1199.67C704.189 1198.25 716.918 1200.14 726.056 1209.54C735.008 1218.74 736.647 1234.46 739.885 1248.45C743.014 1261.96 747.252 1275.59 744.507 1289.23C741.66 1303.39 733.951 1315.12 724.707 1323.91C715.34 1332.81 704.176 1338.24 692.455 1338.71C680.457 1339.19 668.529 1335.21 658.667 1326.57C648.655 1317.81 640.602 1305.3 637.366 1290.48C634.215 1276.03 636.455 1260.6 641.285 1246.91C645.763 1234.22 654.355 1225.36 663.241 1217.16C672.157 1208.93 681.457 1201.01 692.455 1199.67Z" stroke="#EEF2F6" stroke-width="3"/>
<path fill-rule="evenodd" clip-rule="evenodd" d="M1170.15 1442.67C1183.86 1441.25 1198.73 1443.14 1209.41 1452.54C1219.87 1461.74 1221.78 1477.46 1225.57 1491.45C1229.22 1504.96 1234.17 1518.59 1230.97 1532.23C1227.64 1546.39 1218.63 1558.12 1207.83 1566.91C1196.89 1575.81 1183.84 1581.24 1170.15 1581.71C1156.13 1582.19 1142.2 1578.21 1130.67 1569.57C1118.98 1560.81 1109.57 1548.3 1105.79 1533.48C1102.1 1519.03 1104.72 1503.6 1110.37 1489.91C1115.6 1477.22 1125.64 1468.36 1136.02 1460.16C1146.43 1451.93 1157.3 1444.01 1170.15 1442.67Z" stroke="#EEF2F6" stroke-width="3"/>
<path fill-rule="evenodd" clip-rule="evenodd" d="M509.173 975.308C505.712 975.496 502.272 975.682 498.864 975.843C466.837 977.354 435.466 982.008 408.033 996.529C378.667 1012.07 349.021 1031.69 339.097 1060.41C329.565 1088 342.739 1116.69 355.079 1143.57C355.488 1144.46 355.897 1145.35 356.304 1146.24C368.174 1172.15 384.121 1196.32 409.258 1213.54C435.102 1231.23 466.038 1243.26 498.864 1243.85C532.129 1244.45 563.392 1232.78 591.183 1216.8C620.124 1200.15 650.274 1180.56 659.599 1151.4C666.809 1128.86 656.961 1106.46 647.166 1084.19C644.474 1078.07 641.786 1071.96 639.457 1065.85C637.102 1059.68 635.055 1053.28 633.004 1046.87C625.732 1024.14 618.405 1001.24 597.11 987.611C572.53 971.874 540.069 973.634 509.173 975.308ZM554.818 1043.47C539.076 1033.73 519.221 1029.19 499.479 1029.8C480.234 1030.4 462.114 1036.95 447.105 1046.8C432.638 1056.29 423.019 1069.41 417.183 1083.79C411.32 1098.23 409.296 1113.53 414.042 1128.25C418.994 1143.6 428.539 1158.25 444.229 1167.63C459.959 1177.05 479.972 1179.54 499.479 1179.37C518.808 1179.2 537.721 1175.34 553.865 1166.66C570.59 1157.68 585.581 1145.6 591.433 1129.97C597.233 1114.49 591.732 1098.17 585.256 1082.86C578.889 1067.82 570.361 1053.08 554.818 1043.47Z" stroke="#EEF2F6" stroke-width="3"/>
<path fill-rule="evenodd" clip-rule="evenodd" d="M198.18 257.78C183.469 248.462 165.556 245.556 147.852 246.053C130.576 246.539 113.307 250.537 99.6527 260.548C86.2661 270.362 78.8946 285.22 73.6623 300.446C68.4312 315.667 65.6703 331.647 69.8921 347.146C74.3054 363.348 83.055 379.015 97.6466 388.495C112.051 397.853 130.373 398.12 147.852 397.798C165.003 397.481 182.791 396.216 196.653 386.67C210.503 377.132 217.037 361.472 222.763 346.211C228.642 330.542 234.381 314.109 229.911 298.03C225.3 281.444 213.257 267.33 198.18 257.78ZM175.957 283.942C168.112 278.685 158.347 278.29 148.984 278.782C140.045 279.253 131.286 281.427 123.952 286.678C116.519 291.999 110.923 299.531 107.819 308.255C104.63 317.216 103.442 327.068 106.358 336.125C109.267 345.161 115.994 352.252 123.695 357.579C131.191 362.764 139.939 365.397 148.984 365.609C158.2 365.824 167.402 363.933 175.124 358.779C183.129 353.438 189.585 345.736 192.648 336.471C195.734 327.133 195.012 317.002 192.034 307.628C189.056 298.256 184.013 289.339 175.957 283.942Z" stroke="#EEF2F6" stroke-width="3"/>
<path d="M176.097 582.256C133.447 576.562 101.191 564 88.8421 504.75C76.4929 445.5 111.698 439.361 133.448 475.125C155.198 510.889 193.618 506.584 204.188 510.889C222.994 518.549 249.938 528.375 243.487 555.937C237.036 583.499 218.747 587.949 176.097 582.256Z" stroke="#EEF2F6" stroke-width="3"/>
<path d="M556.345 836.765C539.227 871.955 516.44 881.176 463.4 874.665C410.36 868.154 405.656 825.357 441.816 816.938C477.977 808.519 495.062 798.57 501.721 790.688C513.567 776.663 526.878 739.359 548.015 752.923C569.153 766.486 573.463 801.574 556.345 836.765Z" stroke="#EEF2F6" stroke-width="3"/>
<path d="M447.496 483.699C445.147 543.009 384.99 547.937 324.736 533.46C264.481 518.983 221.489 408.242 273.67 391.994C325.851 375.745 352.159 370.736 366.511 289.288C380.862 207.84 464.525 240.813 438.939 307.31C413.352 373.806 449.844 424.39 447.496 483.699Z" stroke="#EEF2F6" stroke-width="3"/>
<path d="M909.414 1207.83C844.078 1296.45 834.373 1187.29 765.622 1163.1C696.87 1138.91 737.162 1062.61 784.054 1074.41C830.946 1086.22 901.334 1044 956.102 970.484C1010.87 896.966 1053.95 974.757 999.119 1027.33C944.29 1079.91 956.102 1144.5 909.414 1207.83Z" stroke="#EEF2F6" stroke-width="3"/>
<path d="M540.942 1286.63C569.241 1282.31 577.117 1311.33 575.814 1342.19C574.51 1373.05 558.732 1401.83 522.829 1386.85C494.321 1374.96 491.403 1352.3 451.515 1352.78C411.628 1353.25 424.367 1300.66 458.21 1307.07C492.053 1313.48 512.643 1290.94 540.942 1286.63Z" stroke="#EEF2F6" stroke-width="3"/>
<path d="M848.427 805.5C877.181 805.5 886.213 732.92 886.213 712.312C886.213 691.705 869.295 675 848.427 675C827.558 675 810.641 691.705 810.641 712.312C810.641 732.92 819.673 805.5 848.427 805.5Z" stroke="#EEF2F6" stroke-width="3"/>
<path d="M752.949 876.75C781.703 876.75 790.735 804.17 790.735 783.562C790.735 762.955 773.817 746.25 752.949 746.25C732.08 746.25 715.163 762.955 715.163 783.562C715.163 804.17 724.195 876.75 752.949 876.75Z" stroke="#EEF2F6" stroke-width="3"/>
<path d="M699.312 850.687C699.312 871.295 690.28 943.875 661.526 943.875C632.772 943.875 623.74 871.295 623.74 850.687C623.74 830.08 640.657 813.375 661.526 813.375C682.394 813.375 699.312 830.08 699.312 850.687Z" stroke="#EEF2F6" stroke-width="3"/>
<path d="M758.041 900.81C754.515 929.839 824.219 947.858 844.323 950.386C864.428 952.913 882.801 937.882 885.36 916.814C887.919 895.746 873.696 876.618 853.591 874.091C833.486 871.564 761.568 871.781 758.041 900.81Z" stroke="#EEF2F6" stroke-width="3"/>
<path d="M939.801 879.136C919.697 876.608 849.993 858.589 853.519 829.56C857.046 800.531 928.964 800.314 949.069 802.841C969.174 805.368 983.397 824.496 980.838 845.564C978.279 866.632 959.906 881.663 939.801 879.136Z" stroke="#EEF2F6" stroke-width="3"/>
<path d="M666.619 967.935C663.092 996.964 732.796 1014.98 752.901 1017.51C773.005 1020.04 791.378 1005.01 793.937 983.939C796.496 962.871 782.273 943.743 762.168 941.216C742.063 938.689 670.145 938.906 666.619 967.935Z" stroke="#EEF2F6" stroke-width="3"/>
<path d="M-71.2373 73.7117C-99.9913 73.7117 -109.023 146.292 -109.023 166.899C-109.023 187.506 -92.1058 204.212 -71.2373 204.212C-50.3688 204.212 -33.4516 187.506 -33.4516 166.899C-33.4516 146.292 -42.4833 73.7117 -71.2373 73.7117Z" stroke="#EEF2F6" stroke-width="3"/>
<path d="M24.2407 2.46174C-4.51326 2.46174 -13.545 75.0421 -13.545 95.6492C-13.545 116.256 3.37225 132.962 24.2407 132.962C45.1092 132.962 62.0264 116.256 62.0264 95.6492C62.0264 75.0421 52.9947 2.46175 24.2407 2.46174Z" stroke="#EEF2F6" stroke-width="3"/>
<path d="M77.878 28.5242C77.878 7.91712 86.9097 -64.6632 115.664 -64.6632C144.418 -64.6632 153.449 7.91713 153.449 28.5243C153.449 49.1314 136.532 65.8367 115.664 65.8367C94.7952 65.8367 77.878 49.1314 77.878 28.5242Z" stroke="#EEF2F6" stroke-width="3"/>
<path d="M19.1481 -21.5985C22.6744 -50.6278 -47.0291 -68.6468 -67.1339 -71.1739C-87.2386 -73.7011 -105.611 -58.6706 -108.171 -37.6024C-110.73 -16.5342 -96.5063 2.59366 -76.4015 5.12081C-56.2968 7.64797 15.6219 7.43068 19.1481 -21.5985Z" stroke="#EEF2F6" stroke-width="3"/>
<path d="M-162.612 0.0760617C-142.507 2.60322 -72.8036 20.6222 -76.3299 49.6515C-79.8561 78.6807 -151.775 78.898 -171.88 76.3708C-191.984 73.8437 -206.208 54.7158 -203.649 33.6476C-201.089 12.5794 -182.717 -2.45107 -162.612 0.0760617Z" stroke="#EEF2F6" stroke-width="3"/>
<path d="M110.571 -88.7235C114.097 -117.753 44.3939 -135.772 24.2891 -138.299C4.18437 -140.826 -14.1884 -125.796 -16.7476 -104.727C-19.3068 -83.6591 -5.0833 -64.5313 15.0215 -62.0042C35.1262 -59.477 107.045 -59.6943 110.571 -88.7235Z" stroke="#EEF2F6" stroke-width="3"/>
<path fill-rule="evenodd" clip-rule="evenodd" d="M827.538 140.111C835.775 141.073 847.399 150.052 854.634 170.516C861.872 190.988 863.95 220.911 867.747 253.834C871.675 287.902 874.627 324.964 873.146 359.867C871.649 395.108 873.077 431.74 866.565 452.561C860.218 472.853 838.912 475.892 830.527 475.154C822.302 474.429 814.512 469.227 807.265 448.898C799.988 428.487 799.673 393.398 796.145 359.933C792.612 326.415 792.924 290.483 794.323 256.552C795.751 221.921 794.702 186.807 800.865 165.204C807.048 143.528 819.062 139.121 827.538 140.111Z" stroke="#EEF2F6" stroke-width="3"/>
<path d="M1210.5 846.089C1201.39 835.263 1192.62 824.614 1186.16 814.756C1176.63 800.236 1176.36 782.342 1177.53 765.008L1179.97 728.512C1183.52 675.629 1126.3 647.559 1110.34 698.112C1109.74 700.007 1109.37 701.75 1109.24 703.313C1106.93 732.131 1116.08 761.697 1124.12 788.209C1134.39 822.08 1122.54 856.144 1099.54 883.084L1096.2 886.996C1061.51 927.632 1054.91 983.238 1104.78 1002.3C1129.79 1011.87 1158.76 999.442 1179.24 982.158L1189.11 973.823C1231.12 938.369 1245.87 888.105 1210.5 846.089Z" stroke="#EEF2F6" stroke-width="3"/>
<path fill-rule="evenodd" clip-rule="evenodd" d="M1237.08 1110.28C1243.01 1111.13 1248.45 1118.82 1253.73 1136.25C1259.01 1153.69 1269.47 1179.14 1272.32 1207.15C1275.28 1236.14 1268.69 1264.77 1267.76 1294.45C1266.82 1324.41 1276.83 1355.56 1272.23 1373.24C1267.74 1390.48 1246.53 1395.89 1240.5 1395.23C1234.58 1394.58 1228.96 1390.13 1223.67 1372.81C1218.36 1355.42 1218 1325.58 1215.34 1297.11C1212.67 1268.59 1221.61 1238.02 1222.49 1209.17C1223.38 1179.73 1213.65 1149.87 1218 1131.52C1222.36 1113.11 1230.98 1109.41 1237.08 1110.28Z" stroke="#EEF2F6" stroke-width="3"/>
<path fill-rule="evenodd" clip-rule="evenodd" d="M271.822 57.2973C276.748 57.9354 284.08 61.913 288.437 75.2218C292.795 88.5363 292.607 109.859 294.926 131.259C297.326 153.403 299.146 177.491 298.313 200.17C297.471 223.068 299.484 252.874 295.622 266.394C291.858 279.57 279.123 278.512 274.109 278.019C269.19 277.536 263.418 271.143 259.055 257.922C254.674 244.648 254.433 221.846 252.274 200.094C250.111 178.308 250.244 154.959 251.03 132.912C251.832 110.41 251.153 87.5909 254.805 73.562C258.47 59.4861 266.752 56.6406 271.822 57.2973Z" stroke="#EEF2F6" stroke-width="3"/>
<path fill-rule="evenodd" clip-rule="evenodd" d="M55.4276 839.317C60.3535 839.955 67.6858 843.933 72.0423 857.242C76.4006 870.556 78.4249 891.879 80.7439 913.279C83.1435 935.423 82.7522 959.511 81.9182 982.19C81.0763 1005.09 83.0901 1034.89 79.2277 1048.41C75.4634 1061.59 60.1486 1060.53 55.134 1060.04C50.215 1059.56 45.1806 1053.16 40.8173 1039.94C36.4363 1026.67 38.7757 1003.87 36.6166 982.114C34.4541 960.328 39.7483 936.979 40.534 914.932C41.3359 892.43 34.7584 869.611 38.4108 855.582C42.0754 841.506 50.3581 838.661 55.4276 839.317Z" stroke="#EEF2F6" stroke-width="3"/>
<path fill-rule="evenodd" clip-rule="evenodd" d="M1266.29 694.186C1288.05 679.972 1319.47 689.684 1347.42 691.38C1367.24 692.582 1385.91 700.58 1405.79 702.649C1432.91 705.474 1461.04 690.186 1485.14 705.721C1509.1 721.158 1522.04 752.165 1523.71 778.654C1525.3 803.936 1504.4 820.87 1493.74 842.237C1484.43 860.906 1478.8 880.898 1465.01 896.306C1448.09 915.215 1431.83 938.381 1405.08 941.291C1377.62 944.278 1347.06 930.869 1323.96 911.649C1302.16 893.511 1298.67 863.902 1283.64 840.239C1267.32 814.543 1235.37 795.391 1231.97 766.795C1228.53 737.823 1243.47 709.096 1266.29 694.186Z" stroke="#EEF2F6" stroke-width="3"/>
<path d="M1328.97 433.192C1365.65 355.884 1349.33 230.012 1451.27 275.54C1553.22 321.068 1481.1 377.845 1524.62 458.01C1568.13 538.175 1565.5 654.406 1462.15 626.732C1358.8 599.058 1301.52 683.329 1236.5 611.377C1171.49 539.425 1292.3 510.5 1328.97 433.192Z" stroke="#EEF2F6" stroke-width="3"/>
<path fill-rule="evenodd" clip-rule="evenodd" d="M1363.62 1055.32C1364.55 1064.77 1366.21 1074.85 1361.78 1083.04C1357.18 1091.58 1348.5 1096.48 1339.81 1099.46C1331.17 1102.42 1321.65 1103.47 1313.28 1099.68C1305.24 1096.04 1300.94 1087.19 1295.82 1079.54C1290.72 1071.91 1283.27 1064.75 1283.62 1055.32C1283.96 1045.97 1292.14 1039.76 1297.56 1032.47C1302.65 1025.62 1306.73 1017.5 1314.22 1014.11C1322.05 1010.58 1331.11 1010.48 1339.05 1013.74C1346.77 1016.91 1352.28 1024.04 1356.74 1031.58C1360.97 1038.74 1362.79 1046.87 1363.62 1055.32Z" stroke="#EEF2F6" stroke-width="3"/>
<path fill-rule="evenodd" clip-rule="evenodd" d="M131.841 121.593C138.799 122.032 145.407 124.604 150.924 128.944C156.317 133.187 160.224 138.999 162.347 145.593C164.474 152.201 164.566 159.211 162.833 165.937C161.015 172.991 157.835 179.734 152.344 184.416C146.597 189.316 139.333 192.618 131.841 192.361C124.478 192.108 118.109 187.679 112.32 183.04C106.735 178.563 102.011 173.151 99.4478 166.401C96.7728 159.355 95.5525 151.62 97.6389 144.371C99.7622 136.994 104.637 130.626 110.956 126.418C117.08 122.34 124.537 121.131 131.841 121.593Z" stroke="#EEF2F6" stroke-width="3"/>
<path fill-rule="evenodd" clip-rule="evenodd" d="M514.425 200.876C486.292 204.103 437.885 183.168 451.586 168.938C482.36 136.976 575.529 133.135 632.195 150.492C666.615 161.035 646.692 185.705 608.309 190.108L514.425 200.876Z" stroke="#EEF2F6" stroke-width="3"/>
<path d="M88.1331 787.827C111.972 816.272 145.145 743.614 121.61 699.401C98.0739 655.187 6.44094 679.767 53.3609 710.995C100.281 742.223 64.294 759.383 88.1331 787.827Z" stroke="#EEF2F6" stroke-width="3"/>
<path d="M1419.36 1126.05C1419.44 1163.43 1490.95 1129.87 1501.13 1080.67C1511.31 1031.47 1425.82 989.889 1441.72 1044.58C1457.63 1099.28 1419.28 1088.67 1419.36 1126.05Z" stroke="#EEF2F6" stroke-width="3"/>
<path d="M1078.37 1179.67C1078.45 1217.05 1149.96 1183.49 1160.14 1134.29C1170.32 1085.09 1084.82 1043.51 1100.73 1098.21C1116.64 1152.9 1078.29 1142.3 1078.37 1179.67Z" stroke="#EEF2F6" stroke-width="3"/>
<path d="M534.208 692.548C557.448 673.727 496.018 657.873 459.599 677.941C423.179 698.008 445.728 758.019 470.785 723.256C495.842 688.492 510.969 711.369 534.208 692.548Z" stroke="#EEF2F6" stroke-width="3"/>
<path d="M1040.17 1272.91C1069.72 1276.01 1036.75 1220.95 996.934 1209.36C957.114 1197.76 931.93 1256.68 973.745 1249.69C1015.56 1242.7 1010.63 1269.81 1040.17 1272.91Z" stroke="#EEF2F6" stroke-width="3"/>
<path d="M866.283 539.462C845.996 524.879 849.204 578.795 874.562 603.604C899.919 628.413 939.3 596.269 907.55 583.544C875.799 570.819 886.571 554.046 866.283 539.462Z" stroke="#EEF2F6" stroke-width="3"/>
<path d="M1231.31 990.964C1249.51 979.289 1244.72 1031.36 1221.33 1052.05C1197.95 1072.73 1160.28 1039.53 1188.24 1031.08C1216.19 1022.62 1213.12 1002.64 1231.31 990.964Z" stroke="#EEF2F6" stroke-width="3"/>
<path fill-rule="evenodd" clip-rule="evenodd" d="M1438.76 1202.1C1427.13 1194.28 1415.47 1186.44 1401.66 1185.28C1384.45 1183.83 1366.25 1187.99 1352.71 1198.88C1341.65 1207.77 1337 1221.75 1332.42 1235.5C1331.59 1238.02 1330.75 1240.53 1329.88 1243C1329.8 1243.22 1329.72 1243.44 1329.65 1243.66C1324.53 1258.16 1319.36 1272.82 1321.23 1288.1C1323.16 1303.77 1330.87 1317.82 1340.58 1330.15C1350.58 1342.86 1362.74 1353.62 1377.59 1359.7C1393.45 1366.2 1411.48 1371.87 1427.49 1365.77C1438.63 1361.52 1445.2 1351.18 1451.82 1340.76C1454.58 1336.42 1457.34 1332.06 1460.45 1328.13C1463.26 1324.58 1466.34 1321.2 1469.4 1317.84C1477.35 1309.1 1485.23 1300.45 1488.2 1288.99C1492.54 1272.22 1491.66 1253.58 1483.73 1238.23C1477.42 1226.02 1465.58 1218.84 1453.8 1211.71C1451.06 1210.05 1448.34 1208.4 1445.68 1206.69C1443.36 1205.19 1441.06 1203.65 1438.76 1202.1ZM1409.71 1233.47C1408.18 1233.6 1406.65 1233.72 1405.13 1233.81C1404.46 1233.85 1403.79 1233.89 1403.13 1233.93C1395.8 1234.33 1388.49 1234.73 1382.01 1238.24C1374.57 1242.28 1367.52 1247.98 1364.32 1255.94C1361.93 1261.92 1362.97 1268.36 1364.02 1274.81C1364.35 1276.84 1364.68 1278.86 1364.91 1280.88C1365.14 1283.03 1365.26 1285.22 1365.38 1287.42C1365.74 1294.11 1366.09 1300.8 1369.9 1306.14C1375.08 1313.44 1383.74 1317.39 1392.34 1319.45C1400.65 1321.44 1409.17 1319.97 1417.35 1317.49C1425.52 1315.02 1433.88 1311.92 1439.33 1305.23C1444.11 1299.36 1445.32 1291.65 1446.51 1284.05C1446.66 1283.07 1446.82 1282.09 1446.98 1281.12C1447.16 1280 1447.36 1278.88 1447.56 1277.76C1448.9 1270.12 1450.27 1262.37 1447.6 1255.17C1444.45 1246.68 1437.99 1239.44 1430.01 1235.43C1423.77 1232.29 1416.72 1232.88 1409.71 1233.47Z" stroke="#EEF2F6" stroke-width="3"/>
<path fill-rule="evenodd" clip-rule="evenodd" d="M1213.73 138.965C1204.16 133.603 1193.43 131.519 1182.43 130.634C1181.84 130.587 1181.25 130.538 1180.65 130.489C1169.35 129.564 1157.67 128.608 1147.63 133.649C1136.63 139.174 1128.54 149.179 1123.53 160.21C1118.56 171.164 1117.16 183.493 1119.69 195.216C1121.94 205.703 1128.87 214.136 1135.75 222.517C1136.29 223.173 1136.82 223.829 1137.36 224.485C1138.65 226.059 1139.91 227.678 1141.17 229.301C1147.49 237.394 1153.89 245.598 1163.58 248.984C1175.45 253.129 1188.86 251.153 1200.55 246.56C1210.96 242.471 1218.32 234.03 1225.6 225.68C1226.07 225.141 1226.54 224.602 1227.01 224.066C1227.9 223.046 1228.81 222.029 1229.72 221.01C1236.64 213.236 1243.7 205.324 1245.46 195.255C1247.47 183.744 1243.69 171.961 1237.93 161.726C1232.42 151.953 1223.65 144.522 1213.73 138.965ZM1194.07 166.098C1190.26 163.926 1185.9 162.875 1181.53 163.175C1177.34 163.463 1173.58 165.468 1170.03 167.749C1166.46 170.042 1163.06 172.643 1160.99 176.375C1158.8 180.309 1157.43 184.839 1158.05 189.308C1158.68 193.78 1161.37 197.63 1164.44 200.901C1167.41 204.065 1171.14 206.259 1175.24 207.607C1179.43 208.985 1183.89 209.888 1188.14 208.697C1192.41 207.497 1195.72 204.296 1198.75 201.01C1201.87 197.616 1205.02 193.997 1205.88 189.437C1206.77 184.777 1205.68 179.915 1203.55 175.693C1201.47 171.584 1198.05 168.357 1194.07 166.098Z" stroke="#EEF2F6" stroke-width="3"/>
<path fill-rule="evenodd" clip-rule="evenodd" d="M349.334 1274.73C345.219 1257.36 336.47 1240.72 317.501 1230.71C298.672 1220.77 272.692 1215.6 246.515 1220.48C222.221 1225 208.652 1245.29 186.353 1255.12C161.648 1266.02 127.273 1263.69 110.388 1280.5C93.4196 1297.4 97.3635 1318.98 105.533 1335.61C113.056 1350.93 134.679 1358.07 152.975 1367.2C170.519 1375.95 186.324 1387.24 209.69 1387.57C233.845 1387.91 258.468 1379.14 281.024 1368.99C304.602 1358.39 328.16 1345.95 340.698 1328.65C353.479 1311.01 353.439 1292.06 349.334 1274.73Z" stroke="#EEF2F6" stroke-width="3"/>
<path fill-rule="evenodd" clip-rule="evenodd" d="M244.878 1419.8C259.446 1418.09 275.511 1418.83 287.479 1424.93C299.458 1431.03 304.746 1441.65 307.787 1451.85C310.584 1461.22 307.802 1470.59 303.832 1479.75C299.789 1489.09 295.974 1499.22 284.781 1504.96C273.583 1510.71 258.731 1509.97 244.878 1510.02C230.959 1510.06 215.778 1511.17 204.718 1505.21C193.741 1499.3 190.765 1488.83 187.863 1479.31C185.228 1470.66 184.633 1461.75 188.939 1453.44C193.138 1445.34 202.144 1439.42 211.449 1433.82C221.561 1427.74 231.764 1421.33 244.878 1419.8Z" stroke="#EEF2F6" stroke-width="3"/>
<path fill-rule="evenodd" clip-rule="evenodd" d="M1171.52 1293.45C1166.24 1305.48 1158.63 1317.69 1149.18 1324.56C1139.72 1331.44 1130.14 1331.29 1121.84 1329.57C1114.21 1327.99 1109.05 1322.07 1104.56 1315.31C1099.98 1308.42 1094.76 1301.39 1095.79 1290.37C1096.82 1279.35 1103.89 1268.08 1109.99 1257.28C1116.11 1246.43 1122.07 1234.17 1131.02 1227.95C1139.91 1221.78 1148.37 1223.66 1156.14 1225.21C1163.2 1226.63 1169.55 1229.74 1173.31 1236.42C1176.97 1242.94 1177.03 1252.32 1176.73 1261.81C1176.41 1272.12 1176.27 1282.63 1171.52 1293.45Z" stroke="#EEF2F6" stroke-width="3"/>
<path d="M316.486 892.479C326.755 905.15 328.235 923.819 315.661 934.117C298.161 948.449 275.922 957.031 251.727 957.031C195.399 957.031 149.668 910.511 149.668 853.212C149.668 823.521 161.947 796.724 181.619 777.793C193.999 765.879 213.084 770.041 224.189 783.19L316.486 892.479ZM316.486 892.479L316.57 892.577L316.488 892.477C316.487 892.476 316.486 892.476 316.486 892.476C316.485 892.476 316.485 892.478 316.486 892.479ZM241.931 650.935C231.743 638.584 235.945 619.5 251.794 619.5C287.394 619.5 316.297 648.902 316.297 685.115C316.297 707.112 289.828 709.002 275.929 692.151L241.931 650.935ZM408.572 894.14C407.937 894.331 407.509 894.936 407.532 895.609C408.033 908.01 406.384 914.973 404.754 918.762C404.284 919.752 403.312 920.394 402.232 920.426C401.152 920.46 400.144 919.878 399.616 918.919C390.854 903.7 386.46 892.972 382.082 882.282C377.804 871.836 373.541 861.426 365.23 846.896C351.316 822.571 329.443 794.986 320.991 784.616L210.011 650.074C210.011 650.074 193.906 630.55 174.473 647.137C155.04 663.725 171.145 683.249 171.145 683.249L189.213 705.153L338.34 881.46C338.664 881.843 338.938 882.179 339.249 882.573C344.77 889.569 402.726 962.071 421.188 946.232C430.056 938.623 422.239 915.349 410.23 894.798C409.889 894.22 409.208 893.949 408.572 894.14ZM378.385 814.89C400.379 814.89 418.209 796.752 418.209 774.379C418.209 752.005 400.379 733.867 378.385 733.867C356.39 733.867 338.56 752.005 338.56 774.379C338.56 796.752 356.39 814.89 378.385 814.89Z" stroke="#EEF2F6" stroke-width="3"/>
<path d="M1672.23 1088.9C1626.6 1151.53 1571.14 1075.99 1534.88 1177.21C1498.62 1278.43 1588.86 1261.01 1629.73 1211.14C1670.59 1161.27 1796.37 1198.52 1774.89 1061.37C1765.31 1000.18 1713.14 1032.73 1672.23 1088.9Z" stroke="#EEF2F6" stroke-width="3"/>
<path d="M1428.76 73.7117C1400.01 73.7117 1390.98 146.292 1390.98 166.899C1390.98 187.506 1407.89 204.212 1428.76 204.212C1449.63 204.212 1466.55 187.506 1466.55 166.899C1466.55 146.292 1457.52 73.7117 1428.76 73.7117Z" stroke="#EEF2F6" stroke-width="3"/>
<path d="M1524.24 2.46174C1495.49 2.46174 1486.46 75.0421 1486.46 95.6492C1486.46 116.256 1503.37 132.962 1524.24 132.962C1545.11 132.962 1562.03 116.256 1562.03 95.6492C1562.03 75.0421 1552.99 2.46175 1524.24 2.46174Z" stroke="#EEF2F6" stroke-width="3"/>
<path d="M1577.88 28.5242C1577.88 7.91712 1586.91 -64.6632 1615.66 -64.6632C1644.42 -64.6632 1653.45 7.91713 1653.45 28.5243C1653.45 49.1314 1636.53 65.8367 1615.66 65.8367C1594.8 65.8367 1577.88 49.1314 1577.88 28.5242Z" stroke="#EEF2F6" stroke-width="3"/>
<path d="M1519.15 -21.5985C1522.67 -50.6278 1452.97 -68.6468 1432.87 -71.1739C1412.76 -73.7011 1394.39 -58.6706 1391.83 -37.6024C1389.27 -16.5342 1403.49 2.59366 1423.6 5.12081C1443.7 7.64797 1515.62 7.43068 1519.15 -21.5985Z" stroke="#EEF2F6" stroke-width="3"/>
<path d="M1337.39 0.0760617C1357.49 2.60322 1427.2 20.6222 1423.67 49.6515C1420.14 78.6807 1348.23 78.898 1328.12 76.3708C1308.02 73.8437 1293.79 54.7158 1296.35 33.6476C1298.91 12.5794 1317.28 -2.45107 1337.39 0.0760617Z" stroke="#EEF2F6" stroke-width="3"/>
<path d="M1610.57 -88.7235C1614.1 -117.753 1544.39 -135.772 1524.29 -138.299C1504.18 -140.826 1485.81 -125.796 1483.25 -104.727C1480.69 -83.6591 1494.92 -64.5313 1515.02 -62.0042C1535.13 -59.477 1607.04 -59.6943 1610.57 -88.7235Z" stroke="#EEF2F6" stroke-width="3"/>
<path d="M642.168 -75.562C544.294 33.5631 430.934 -200.624 352.048 -19.3119C273.162 162.001 424.486 121.875 545.953 96.188C667.42 70.5004 855.243 136.313 870.91 19.1256C886.577 -98.062 740.043 -184.687 642.168 -75.562Z" stroke="#EEF2F6" stroke-width="3"/>
<path d="M921.909 -51.8361C971.348 39.286 844.463 223.24 976.287 234.456C1108.11 245.672 1077.2 105.456 1050.24 29.3417C1023.27 -46.7723 1141.83 -77.9244 1014.72 -182.587C945.771 -239.361 855.481 -174.272 921.909 -51.8361Z" stroke="#EEF2F6" stroke-width="3"/>
<path fill-rule="evenodd" clip-rule="evenodd" d="M1170.15 -57.3262C1183.86 -58.7497 1198.73 -56.8598 1209.41 -47.4632C1219.87 -38.2579 1221.78 -22.5393 1225.57 -8.55259C1229.22 4.96084 1234.17 18.5881 1230.97 32.2337C1227.64 46.3876 1218.63 58.1197 1207.83 66.906C1196.89 75.8093 1183.84 81.2376 1170.15 81.7107C1156.13 82.1949 1142.2 78.2062 1130.67 69.5714C1118.98 60.8053 1109.57 48.3032 1105.79 33.4782C1102.1 19.0346 1104.72 3.60015 1110.37 -10.0855C1115.6 -22.7766 1125.64 -31.6396 1136.02 -39.8429C1146.43 -48.0746 1157.3 -55.9921 1170.15 -57.3262Z" stroke="#EEF2F6" stroke-width="3"/>
<path fill-rule="evenodd" clip-rule="evenodd" d="M244.878 -80.2037C259.446 -81.9086 275.511 -81.171 287.479 -75.0737C299.458 -68.9708 304.746 -58.3489 307.787 -48.1539C310.584 -38.7757 307.802 -29.4123 303.832 -20.2466C299.789 -10.9125 295.974 -0.783715 284.781 4.96197C273.583 10.7103 258.731 9.97382 244.878 10.0169C230.959 10.0601 215.778 11.1672 204.718 5.21073C193.741 -0.701309 190.765 -11.171 187.863 -20.6907C185.228 -29.3359 184.633 -38.2525 188.939 -46.5577C193.138 -54.655 202.144 -60.5799 211.449 -66.1763C221.561 -72.2585 231.764 -78.6691 244.878 -80.2037Z" stroke="#EEF2F6" stroke-width="3"/>
</g>
<defs>
<clipPath id="clip0_805:17382">
<rect width="1500" height="1500" fill="white"/>
</clipPath>
</defs>
</svg>
