<svg width="1200" height="1200" viewBox="0 0 1200 1200" fill="none" xmlns="http://www.w3.org/2000/svg">
<g clip-path="url(#clip0_701_4184)">
<rect width="1200" height="1200" fill="#F4F5FA"/>
<path d="M62.3027 1222.82C62.3027 1206.33 69.528 1148.27 92.5312 1148.27C115.534 1148.27 122.76 1206.33 122.76 1222.82C122.76 1239.31 109.226 1252.67 92.5312 1252.67C75.8364 1252.67 62.3027 1239.31 62.3027 1222.82Z" fill="#609AC7"/>
<path d="M-53.7067 1143.06C-37.6229 1145.08 18.1399 1159.5 15.3189 1182.72C12.4979 1205.94 -45.037 1206.12 -61.1208 1204.1C-77.2047 1202.07 -88.5835 1186.77 -86.5361 1169.92C-84.4887 1153.06 -69.7905 1141.04 -53.7067 1143.06Z" fill="#609AC7"/>
<path d="M19.432 1089.36C35.5158 1091.38 91.2785 1105.8 88.4576 1129.02C85.6366 1152.24 28.1017 1152.42 12.0178 1150.4C-4.06598 1148.37 -15.4448 1133.07 -13.3974 1116.22C-11.3501 1099.36 3.34816 1087.34 19.432 1089.36Z" fill="#609AC7"/>
<path d="M1146.29 1143.06C1162.38 1145.08 1218.14 1159.5 1215.32 1182.72C1212.5 1205.94 1154.96 1206.12 1138.88 1204.1C1122.8 1202.07 1111.42 1186.77 1113.46 1169.92C1115.51 1153.06 1130.21 1141.04 1146.29 1143.06Z" fill="#609AC7"/>
<path d="M1069.91 1200.06C1085.99 1202.08 1141.76 1216.5 1138.94 1239.72C1136.12 1262.94 1078.58 1263.12 1062.5 1261.1C1046.41 1259.07 1035.03 1243.77 1037.08 1226.92C1039.13 1210.06 1053.83 1198.04 1069.91 1200.06Z" fill="#609AC7"/>
<path d="M1219.43 1089.36C1235.52 1091.38 1291.28 1105.8 1288.46 1129.02C1285.64 1152.24 1228.1 1152.42 1212.02 1150.4C1195.93 1148.37 1184.56 1133.07 1186.6 1116.22C1188.65 1099.36 1203.35 1087.34 1219.43 1089.36Z" fill="#609AC7"/>
<path fill-rule="evenodd" clip-rule="evenodd" d="M-186.966 555.349C-169.56 543.978 -144.421 551.747 -122.064 553.104C-106.206 554.066 -91.2711 560.464 -75.3717 562.12C-53.6711 564.379 -31.1673 552.149 -11.8844 564.577C7.2762 576.926 17.6354 601.732 18.9698 622.924C20.2434 643.149 3.5215 656.696 -5.00712 673.789C-12.4591 688.725 -16.9577 704.719 -27.9907 717.045C-41.5314 732.172 -54.5369 750.705 -75.9385 753.033C-97.9019 755.422 -122.355 744.695 -140.833 729.319C-158.271 714.808 -161.067 691.122 -173.089 672.191C-186.143 651.634 -211.706 636.313 -214.423 613.436C-217.176 590.258 -205.227 567.277 -186.966 555.349Z" fill="#123871"/>
<path d="M-136.821 346.554C-107.483 284.707 -120.538 184.01 -38.9825 220.432C42.5734 256.855 -15.1197 302.276 19.6923 366.408C54.5044 430.54 52.3988 523.524 -30.2798 501.385C-112.958 479.246 -158.782 546.663 -210.797 489.102C-262.811 431.54 -166.159 408.4 -136.821 346.554Z" fill="#EBC4BC"/>
<path d="M-64.511 900.84C-64.4461 930.743 -7.23754 903.895 0.906992 864.534C9.05152 825.173 -59.347 791.911 -46.6205 835.666C-33.894 879.421 -64.576 870.937 -64.511 900.84Z" fill="#123871"/>
<path d="M513.735 1139.55C435.435 1226.85 344.747 1039.5 281.638 1184.55C218.53 1329.6 339.589 1297.5 436.762 1276.95C533.936 1256.4 684.194 1309.05 696.728 1215.3C709.262 1121.55 592.034 1052.25 513.735 1139.55Z" fill="#EBC4BC"/>
<path d="M583.485 378C494.864 332.85 629.787 197.4 494.864 186.9C359.941 176.4 380.653 309.174 437.356 370.2C494.059 431.225 459.032 531 589.096 516.675C667.428 508.047 673.15 423.681 583.485 378Z" fill="#123871"/>
<path d="M737.527 1158.53C777.078 1231.43 675.57 1378.59 781.029 1387.56C886.488 1396.54 861.764 1284.37 840.189 1223.47C818.615 1162.58 913.462 1137.66 811.775 1053.93C756.616 1008.51 684.384 1060.58 737.527 1158.53Z" fill="#123871"/>
<path d="M137.78 871.118C101.279 921.221 56.9116 860.795 27.9036 941.77C-1.10435 1022.74 71.0886 1008.8 103.781 968.91C136.473 929.016 237.093 958.814 219.911 849.098C212.244 800.142 170.514 826.187 137.78 871.118Z" fill="#609AC7"/>
<path d="M780.487 354.15C842.714 478.65 715.9 505.95 767.068 572.7C818.236 639.45 872.795 495.75 930.745 441.3C1004.18 372.3 1001.97 264.75 907.3 228.45C839.361 202.398 738.605 270.355 780.487 354.15Z" fill="#BBC7F6"/>
<path fill-rule="evenodd" clip-rule="evenodd" d="M398.47 439.993C406.307 439.606 414.708 439.511 421.151 442.599C427.646 445.71 430.169 451.243 432.7 456.395C435.26 461.605 438.409 467.158 435.767 472.349C433.144 477.5 425.479 480.269 418.958 483.389C412.577 486.442 406.244 490.055 398.47 490.195C390.6 490.337 383.602 487.271 377.184 484.142C370.7 480.98 364.024 477.453 361.652 472.242C359.292 467.057 361.597 461.501 364.592 456.473C367.406 451.748 371.972 447.678 378.039 444.726C384.051 441.802 391.121 440.355 398.47 439.993Z" fill="#609AC7"/>
<path fill-rule="evenodd" clip-rule="evenodd" d="M497.591 545.102C502.094 545.167 506.047 547.631 509.791 550.183C513.684 552.838 518.098 555.488 519.506 560.043C520.911 564.585 518.503 569.223 517.082 573.761C515.653 578.325 515 583.583 511.238 586.454C507.459 589.337 502.292 589.063 497.591 588.632C493.246 588.234 489.318 586.464 485.619 584.105C481.65 581.573 477.052 579.127 475.582 574.595C474.11 570.056 476.355 565.285 478.071 560.836C479.686 556.653 481.68 552.616 485.139 549.828C488.7 546.957 493.052 545.036 497.591 545.102Z" fill="#123871"/>
<path fill-rule="evenodd" clip-rule="evenodd" d="M579.118 142.801C582.583 142.851 585.627 144.742 588.508 146.699C591.505 148.736 594.902 150.769 595.986 154.263C597.067 157.748 595.214 161.306 594.121 164.786C593.021 168.288 592.518 172.321 589.622 174.524C586.713 176.735 582.736 176.525 579.118 176.195C575.773 175.889 572.75 174.531 569.902 172.721C566.847 170.779 563.308 168.903 562.176 165.426C561.043 161.944 562.771 158.284 564.092 154.872C565.335 151.662 566.87 148.566 569.532 146.427C572.274 144.224 575.623 142.751 579.118 142.801Z" fill="#123871"/>
<path fill-rule="evenodd" clip-rule="evenodd" d="M595.606 300.001C597.472 300.059 599.111 302.236 600.663 304.491C602.276 306.837 604.106 309.179 604.689 313.203C605.272 317.216 604.274 321.315 603.685 325.323C603.093 329.356 602.822 334.002 601.262 336.539C599.696 339.086 597.555 338.844 595.606 338.464C593.805 338.111 592.177 336.548 590.644 334.463C588.999 332.226 587.093 330.065 586.484 326.06C585.874 322.05 586.804 317.835 587.516 313.904C588.185 310.208 589.011 306.641 590.445 304.177C591.921 301.64 593.725 299.944 595.606 300.001Z" fill="#EBC4BC"/>
<path fill-rule="evenodd" clip-rule="evenodd" d="M839.204 832.201C841.011 832.24 842.598 833.708 844.1 835.229C845.662 836.811 847.433 838.39 847.999 841.104C848.563 843.811 847.596 846.575 847.026 849.279C846.453 851.999 846.19 855.132 844.68 856.843C843.164 858.561 841.09 858.397 839.204 858.141C837.46 857.903 835.884 856.848 834.399 855.443C832.807 853.934 830.961 852.476 830.371 849.776C829.781 847.071 830.681 844.228 831.37 841.577C832.018 839.084 832.818 836.679 834.207 835.017C835.636 833.306 837.382 832.162 839.204 832.201Z" fill="#123871"/>
<path fill-rule="evenodd" clip-rule="evenodd" d="M643.093 1026.05C645.356 1024.27 648.834 1024.56 652.262 1025.02C655.829 1025.49 659.649 1025.74 663.165 1028.7C666.672 1031.65 668.356 1036.23 670.465 1040.32C672.587 1044.45 675.521 1048.79 675.442 1052.55C675.362 1056.33 672.642 1058.22 670.055 1059.81C667.663 1061.27 664.628 1061.5 661.341 1061.18C657.814 1060.84 654.029 1060.82 650.496 1057.9C646.958 1054.98 645.111 1050.37 643.203 1046.22C641.409 1042.32 639.893 1038.37 639.873 1034.8C639.853 1031.12 640.812 1027.85 643.093 1026.05Z" fill="#123871"/>
<path fill-rule="evenodd" clip-rule="evenodd" d="M281.831 477.116C284.093 475.329 287.571 475.627 291 476.079C294.566 476.549 298.386 476.804 301.902 479.761C305.409 482.71 307.093 487.289 309.202 491.386C311.324 495.509 314.258 499.853 314.179 503.614C314.1 507.391 311.38 509.287 308.792 510.871C306.4 512.335 303.365 512.565 300.078 512.244C296.551 511.901 292.766 511.88 289.234 508.966C285.696 506.047 283.849 501.431 281.941 497.281C280.146 493.379 278.63 489.435 278.611 485.861C278.591 482.182 279.549 478.917 281.831 477.116Z" fill="#123871"/>
<path fill-rule="evenodd" clip-rule="evenodd" d="M902.508 1102.03C905.709 1100.66 909.113 1100.86 912.388 1101.17C915.796 1101.49 919.57 1101.65 921.688 1103.85C923.8 1106.04 923.238 1109.47 923.35 1112.54C923.462 1115.63 924.295 1118.87 922.34 1121.71C920.376 1124.55 916.654 1126 913.223 1127.22C910.051 1128.34 906.837 1128.54 903.64 1128.32C900.209 1128.09 896.355 1128.11 894.199 1125.95C892.041 1123.78 892.454 1120.32 892.574 1117.21C892.686 1114.29 893.103 1111.33 894.863 1108.64C896.676 1105.87 899.281 1103.4 902.508 1102.03Z" fill="#F2BD0D"/>
<path fill-rule="evenodd" clip-rule="evenodd" d="M839.231 624.623C844.444 624.775 849.795 625.476 853.967 628.647C858.102 631.791 859.958 636.871 861.789 641.771C863.714 646.925 866.382 652.342 864.786 657.61C863.181 662.904 857.945 665.872 853.504 669.102C849.091 672.311 844.661 676.059 839.231 676.195C833.74 676.333 828.614 673.442 824.436 669.829C820.49 666.417 818.587 661.505 816.617 656.642C814.471 651.343 811.125 645.953 812.519 640.403C813.94 634.747 818.892 630.713 823.868 627.773C828.495 625.04 833.877 624.468 839.231 624.623Z" fill="#123871"/>
<path fill-rule="evenodd" clip-rule="evenodd" d="M1053.23 1120.2C1057.03 1120.26 1060.84 1121.14 1063.89 1123.45C1066.93 1125.75 1068.88 1129.19 1069.96 1132.89C1071.02 1136.51 1071.22 1140.43 1069.91 1143.97C1068.64 1147.41 1065.85 1149.9 1062.9 1152.02C1059.99 1154.09 1056.78 1155.91 1053.23 1155.9C1049.68 1155.89 1046.41 1154.17 1043.6 1151.97C1040.85 1149.81 1038.91 1146.89 1037.58 1143.62C1036.15 1140.1 1034.85 1136.34 1035.72 1132.63C1036.62 1128.76 1039.14 1125.41 1042.34 1123.14C1045.5 1120.9 1049.38 1120.15 1053.23 1120.2Z" fill="#EBC4BC"/>
<path fill-rule="evenodd" clip-rule="evenodd" d="M735.607 381.003C739.411 381.058 743.22 381.938 746.274 384.253C749.306 386.552 751.255 389.994 752.339 393.688C753.403 397.315 753.602 401.226 752.293 404.769C751.021 408.213 748.229 410.703 745.275 412.815C742.367 414.894 739.158 416.709 735.607 416.7C732.063 416.691 728.786 414.97 725.976 412.765C723.227 410.609 721.292 407.692 719.96 404.424C718.525 400.904 717.233 397.139 718.095 393.429C718.995 389.555 721.517 386.213 724.719 383.941C727.879 381.699 731.76 380.947 735.607 381.003Z" fill="#EBC4BC"/>
<path fill-rule="evenodd" clip-rule="evenodd" d="M1057.88 169.96C1060.73 170.848 1063.55 172.207 1064.9 175.428C1066.28 178.705 1065.91 183.138 1065.19 187.412C1064.47 191.702 1063.17 196.026 1060.8 199.69C1058.36 203.472 1055.23 206.639 1051.86 208.036C1048.55 209.412 1045.43 208.621 1042.67 207.219C1040.02 205.873 1037.8 203.632 1036.62 200.283C1035.45 196.979 1035.31 192.915 1036.15 188.786C1036.97 184.778 1038.86 180.995 1041.21 177.722C1043.51 174.509 1046.26 171.928 1049.25 170.541C1052.25 169.142 1055.2 169.122 1057.88 169.96Z" fill="#123871"/>
<path fill-rule="evenodd" clip-rule="evenodd" d="M1007.52 266.38C1009.28 264.269 1011.44 262.362 1014.68 262.486C1017.97 262.611 1021.64 264.705 1025.05 267.048C1028.47 269.398 1031.71 272.257 1034.02 275.782C1036.39 279.419 1038 283.408 1038.01 286.888C1038.02 290.313 1036.24 292.708 1034.06 294.536C1031.98 296.292 1029.27 297.317 1025.98 297C1022.74 296.686 1019.21 295.174 1015.97 292.787C1012.82 290.471 1010.25 287.313 1008.28 283.962C1006.34 280.672 1005.1 277.249 1004.96 274.106C1004.82 270.937 1005.85 268.372 1007.52 266.38Z" fill="#F2BD0D"/>
<path fill-rule="evenodd" clip-rule="evenodd" d="M135.84 784.128C138.586 785.295 141.268 786.929 142.3 790.269C143.35 793.667 142.562 798.043 141.432 802.225C140.298 806.422 138.594 810.595 135.884 814.006C133.088 817.526 129.667 820.366 126.183 821.421C122.754 822.46 119.719 821.362 117.111 819.692C114.606 818.088 112.613 815.636 111.758 812.185C110.914 808.781 111.169 804.723 112.402 800.698C113.599 796.79 115.844 793.213 118.496 790.191C121.101 787.222 124.088 784.929 127.188 783.845C130.314 782.752 133.25 783.027 135.84 784.128Z" fill="#609AC7"/>
<path fill-rule="evenodd" clip-rule="evenodd" d="M1045.02 93.9986C1048.71 93.2891 1052.65 92.9829 1055.98 94.7324C1059.39 96.5256 1061.6 99.9513 1063.12 103.515C1064.65 107.07 1065.63 111.035 1064.57 114.761C1063.54 118.377 1060.51 120.919 1057.53 123.176C1054.77 125.266 1051.61 126.439 1048.23 127.133C1044.47 127.904 1040.48 129.022 1037.01 127.386C1033.41 125.689 1030.84 122.157 1029.58 118.349C1028.38 114.729 1029.18 110.835 1030.34 107.201C1031.41 103.86 1033.31 100.93 1035.9 98.5939C1038.5 96.2556 1041.6 94.6561 1045.02 93.9986Z" fill="#F2BD0D"/>
<path fill-rule="evenodd" clip-rule="evenodd" d="M283.501 128.401C287.064 128.359 290.435 130.144 293.104 132.561C295.607 134.825 296.734 138.098 297.797 141.34C298.87 144.615 300.325 148.061 299.26 151.34C298.197 154.61 294.986 156.42 292.246 158.422C289.532 160.405 286.825 162.59 283.501 162.853C280.024 163.128 276.375 162.197 273.715 159.888C271.146 157.657 270.384 154.08 269.548 150.738C268.765 147.608 268.28 144.423 269.066 141.293C269.89 138.008 271.558 135.012 274.055 132.783C276.725 130.397 279.958 128.442 283.501 128.401Z" fill="#123871"/>
<path fill-rule="evenodd" clip-rule="evenodd" d="M811.394 892.201C814.957 892.159 818.328 893.944 820.998 896.361C823.5 898.625 824.627 901.898 825.69 905.14C826.764 908.415 828.219 911.861 827.154 915.14C826.091 918.41 822.88 920.22 820.14 922.222C817.426 924.205 814.719 926.39 811.394 926.653C807.918 926.928 804.268 925.997 801.609 923.688C799.039 921.457 798.277 917.88 797.442 914.538C796.659 911.408 796.174 908.223 796.959 905.093C797.784 901.808 799.452 898.812 801.948 896.583C804.619 894.197 807.851 892.242 811.394 892.201Z" fill="#609AC7"/>
<path fill-rule="evenodd" clip-rule="evenodd" d="M553.964 959.739C563.351 958.6 573.535 960.112 580.845 967.629C588.007 974.994 589.318 987.569 591.909 998.758C594.412 1009.57 597.802 1020.47 595.606 1031.39C593.329 1042.71 587.161 1052.1 579.766 1059.12C572.273 1066.25 563.341 1070.59 553.964 1070.97C544.366 1071.36 534.824 1068.16 526.934 1061.26C518.925 1054.24 512.482 1044.24 509.894 1032.38C507.372 1020.83 509.164 1008.48 513.028 997.532C516.611 987.379 523.484 980.288 530.593 973.726C537.726 967.14 545.166 960.806 553.964 959.739Z" fill="#F2BD0D"/>
<path fill-rule="evenodd" clip-rule="evenodd" d="M936.119 1154.14C947.087 1153 958.985 1154.51 967.526 1162.03C975.893 1169.39 977.425 1181.97 980.452 1193.16C983.376 1203.97 987.337 1214.87 984.772 1225.79C982.111 1237.11 974.905 1246.5 966.265 1253.52C957.51 1260.65 947.075 1264.99 936.119 1265.37C924.905 1265.76 913.757 1262.57 904.539 1255.66C895.181 1248.64 887.653 1238.64 884.629 1226.78C881.683 1215.23 883.778 1202.88 888.292 1191.93C892.478 1181.78 900.508 1174.69 908.813 1168.13C917.147 1161.54 925.84 1155.21 936.119 1154.14Z" fill="#BBC7F6"/>
<path fill-rule="evenodd" clip-rule="evenodd" d="M407.338 780.247C404.57 780.397 401.818 780.546 399.092 780.675C373.47 781.883 348.373 785.607 326.427 797.223C302.934 809.658 279.217 825.35 271.278 848.327C263.652 870.398 274.191 893.354 284.063 914.857C284.391 915.571 284.718 916.283 285.044 916.994C294.54 937.719 307.297 957.059 327.406 970.828C348.082 984.985 372.831 994.612 399.092 995.083C425.704 995.56 450.714 986.227 472.947 973.439C496.1 960.122 520.22 944.449 527.68 921.122C533.448 903.085 525.569 885.171 517.734 867.353C515.58 862.456 513.429 857.565 511.566 852.682C509.682 847.744 508.044 842.626 506.404 837.497C500.586 819.314 494.724 800.995 477.688 790.088C458.024 777.499 432.055 778.907 407.338 780.247ZM443.855 834.773C431.261 826.983 415.377 823.355 399.584 823.843C384.187 824.319 369.691 829.56 357.685 837.437C346.111 845.028 338.416 855.529 333.747 867.03C329.056 878.586 327.437 890.824 331.234 902.597C335.195 914.877 342.832 926.598 355.383 934.108C367.967 941.638 383.978 943.632 399.584 943.493C415.047 943.357 430.177 940.269 443.093 933.331C456.472 926.145 468.465 916.476 473.147 903.979C477.786 891.593 473.386 878.534 468.205 866.292C463.112 854.259 456.289 842.465 443.855 834.773Z" fill="#BBC7F6"/>
<path fill-rule="evenodd" clip-rule="evenodd" d="M158.544 206.224C146.775 198.769 132.445 196.445 118.281 196.843C104.46 197.231 90.645 200.43 79.7217 208.438C69.0125 216.29 63.1153 228.176 58.9295 240.356C54.7446 252.534 52.5358 265.318 55.9133 277.717C59.4439 290.678 66.4436 303.212 78.1169 310.796C89.64 318.283 104.298 318.496 118.281 318.238C132.002 317.985 146.233 316.972 157.322 309.336C168.402 301.706 173.63 289.177 178.21 276.969C182.914 264.433 187.504 251.287 183.928 238.424C180.24 225.155 170.605 213.864 158.544 206.224ZM140.765 227.153C134.489 222.948 126.678 222.632 119.186 223.026C112.036 223.402 105.028 225.141 99.1609 229.342C93.215 233.599 88.7377 239.625 86.2545 246.604C83.7038 253.773 82.7536 261.654 85.086 268.9C87.4128 276.129 92.7951 281.802 98.9556 286.063C104.953 290.211 111.951 292.318 119.186 292.487C126.559 292.659 133.921 291.146 140.099 287.024C146.503 282.75 151.667 276.589 154.118 269.177C156.587 261.707 156.01 253.602 153.627 246.102C151.245 238.605 147.21 231.471 140.765 227.153Z" fill="#BBC7F6"/>
<path d="M140.878 465.805C106.758 461.25 80.9536 451.2 71.0743 403.8C61.1949 356.4 89.3589 351.488 106.759 380.1C124.159 408.711 154.895 405.267 163.351 408.711C178.396 414.839 199.951 422.7 194.79 444.75C189.629 466.799 174.998 470.359 140.878 465.805Z" fill="#F2BD0D"/>
<path d="M445.076 669.412C431.381 697.564 413.151 704.941 370.72 699.732C328.288 694.523 324.525 660.285 353.453 653.55C382.381 646.815 396.049 638.856 401.376 632.55C410.854 621.331 421.502 591.488 438.412 602.338C455.322 613.189 458.77 641.259 445.076 669.412Z" fill="#EBC4BC"/>
<path d="M357.997 386.959C356.118 434.407 307.993 438.349 259.789 426.768C211.585 415.186 177.192 326.594 218.936 313.595C260.681 300.596 281.728 296.588 293.209 231.43C304.69 166.272 371.62 192.651 351.151 245.848C330.682 299.044 359.876 339.512 357.997 386.959Z" fill="#EBC4BC"/>
<path d="M727.531 966.262C675.263 1037.16 667.499 949.831 612.497 930.481C557.496 911.131 589.729 850.086 627.243 859.531C664.757 868.977 721.067 835.201 764.882 776.387C808.697 717.573 843.159 779.806 799.295 821.867C755.432 863.929 764.882 915.6 727.531 966.262Z" fill="#609AC7"/>
<path d="M432.754 1029.3C455.393 1025.85 461.694 1049.07 460.651 1073.75C459.609 1098.44 446.985 1121.46 418.263 1109.48C395.457 1099.97 393.122 1081.84 361.212 1082.22C329.302 1082.6 339.494 1040.53 366.569 1045.66C393.643 1050.79 410.114 1032.75 432.754 1029.3Z" fill="#609AC7"/>
<path d="M632.588 626.85C632.588 643.336 625.363 701.4 602.359 701.4C579.356 701.4 572.131 643.336 572.131 626.85C572.131 610.364 585.665 597 602.359 597C619.054 597 632.588 610.364 632.588 626.85Z" fill="#F2BD0D"/>
<path d="M708.97 569.85C708.97 586.336 701.744 644.4 678.741 644.4C655.738 644.4 648.513 586.336 648.513 569.85C648.513 553.364 662.046 540 678.741 540C695.436 540 708.97 553.364 708.97 569.85Z" fill="#F2BD0D"/>
<path d="M559.449 680.55C559.449 697.036 552.224 755.1 529.221 755.1C506.218 755.1 498.992 697.036 498.992 680.55C498.992 664.064 512.526 650.7 529.221 650.7C545.916 650.7 559.449 664.064 559.449 680.55Z" fill="#F2BD0D"/>
<path d="M675.459 760.309C659.375 758.287 603.612 743.872 606.433 720.648C609.254 697.425 666.789 697.251 682.873 699.273C698.957 701.295 710.335 716.597 708.288 733.451C706.241 750.306 691.542 762.33 675.459 760.309Z" fill="#F2BD0D"/>
<path d="M751.841 703.309C735.758 701.287 679.995 686.872 682.816 663.648C685.637 640.425 743.172 640.251 759.256 642.273C775.339 644.294 786.718 659.597 784.671 676.451C782.624 693.306 767.925 705.33 751.841 703.309Z" fill="#F2BD0D"/>
<path d="M602.32 814.009C586.236 811.987 530.473 797.572 533.294 774.348C536.115 751.125 593.65 750.951 609.734 752.973C625.818 754.994 637.197 770.297 635.149 787.151C633.102 804.006 618.404 816.03 602.32 814.009Z" fill="#F2BD0D"/>
<path d="M-10.836 76.5193C-10.836 60.0336 -3.61065 1.96931 19.3925 1.96931C42.3957 1.96931 49.6211 60.0336 49.6211 76.5193C49.6211 93.005 36.0873 106.369 19.3925 106.369C2.69777 106.369 -10.836 93.005 -10.836 76.5193Z" fill="#609AC7"/>
<path d="M62.3027 22.8193C62.3027 6.33362 69.528 -51.7307 92.5312 -51.7307C115.534 -51.7307 122.76 6.33363 122.76 22.8193C122.76 39.305 109.226 52.6693 92.5312 52.6693C75.8364 52.6693 62.3027 39.305 62.3027 22.8193Z" fill="#609AC7"/>
<path d="M-53.7067 -56.9393C-37.6229 -54.9175 18.1399 -40.5023 15.3189 -17.2789C12.4979 5.94443 -45.037 6.11826 -61.1208 4.09654C-77.2047 2.07482 -88.5835 -13.2274 -86.5361 -30.082C-84.4887 -46.9366 -69.7905 -58.961 -53.7067 -56.9393Z" fill="#609AC7"/>
<path fill-rule="evenodd" clip-rule="evenodd" d="M662.03 112.089C668.619 112.859 677.919 120.042 683.707 136.413C689.497 152.791 691.16 176.729 694.197 203.067C697.34 230.322 699.701 259.971 698.516 287.894C697.319 316.087 698.461 345.392 693.251 362.049C688.174 378.283 671.129 380.714 664.421 380.123C657.841 379.544 651.609 375.381 645.811 359.119C639.99 342.79 639.738 314.719 636.915 287.947C634.089 261.132 634.339 232.387 635.458 205.242C636.6 177.537 635.761 149.446 640.691 132.163C645.638 114.823 655.249 111.297 662.03 112.089Z" fill="#F2BD0D"/>
<path d="M968.401 676.871C961.111 668.21 954.096 659.691 948.924 651.804C941.306 640.189 941.091 625.874 942.021 612.006L943.978 582.809C946.813 540.503 901.038 518.047 888.271 558.49C887.792 560.005 887.492 561.4 887.392 562.65C885.545 585.705 892.861 609.357 899.295 630.567C907.516 657.664 898.035 684.915 879.635 706.467L876.963 709.597C849.209 742.105 843.93 786.59 883.822 801.843C903.831 809.493 927.004 799.553 943.389 785.726L951.29 779.058C984.899 750.695 996.694 710.484 968.401 676.871Z" fill="#F2BD0D"/>
<path fill-rule="evenodd" clip-rule="evenodd" d="M989.666 888.228C994.407 888.908 998.761 895.055 1002.99 909C1007.21 922.951 1015.57 943.31 1017.86 965.72C1020.22 988.911 1014.95 1011.82 1014.21 1035.56C1013.45 1059.53 1021.46 1084.45 1017.78 1098.6C1014.19 1112.38 997.223 1116.71 992.397 1116.18C987.663 1115.66 983.166 1112.1 978.936 1098.25C974.689 1084.34 974.401 1060.46 972.271 1037.69C970.137 1014.87 977.286 990.419 977.988 967.338C978.705 943.781 970.918 919.895 974.398 905.216C977.889 890.488 984.787 887.527 989.666 888.228Z" fill="#EBC4BC"/>
<path fill-rule="evenodd" clip-rule="evenodd" d="M217.457 45.8376C221.398 46.3481 227.264 49.5302 230.749 60.1773C234.236 70.8289 234.086 87.8871 235.941 105.007C237.861 122.722 239.317 141.993 238.65 160.136C237.976 178.454 239.588 202.299 236.498 213.115C233.486 223.656 223.299 222.809 219.287 222.415C215.352 222.029 210.734 216.914 207.244 206.338C203.739 195.718 203.546 177.476 201.819 160.075C200.089 142.646 200.195 123.967 200.824 106.329C201.466 88.3276 200.922 70.0725 203.844 58.8494C206.776 47.5887 213.402 45.3123 217.457 45.8376Z" fill="#F2BD0D"/>
<path fill-rule="evenodd" clip-rule="evenodd" d="M44.3415 671.454C48.2823 671.964 54.148 675.146 57.6332 685.794C61.1199 696.445 62.7393 713.503 64.5945 730.623C66.5142 748.339 66.2012 767.609 65.534 785.752C64.8604 804.07 66.4715 827.915 63.3816 838.731C60.3701 849.272 48.1183 848.426 44.1066 848.032C40.1714 847.645 36.1439 842.531 32.6533 831.954C29.1484 821.334 31.02 803.093 29.2927 785.691C27.5627 768.262 31.7981 749.583 32.4266 731.946C33.0682 713.944 27.8062 695.689 30.728 684.466C33.6597 673.205 40.2859 670.929 44.3415 671.454Z" fill="#EBC4BC"/>
<path fill-rule="evenodd" clip-rule="evenodd" d="M1013.03 555.349C1030.44 543.978 1055.58 551.747 1077.94 553.104C1093.79 554.066 1108.73 560.464 1124.63 562.12C1146.33 564.379 1168.83 552.149 1188.12 564.577C1207.28 576.926 1217.64 601.732 1218.97 622.924C1220.24 643.149 1203.52 656.696 1194.99 673.789C1187.54 688.725 1183.04 704.719 1172.01 717.045C1158.47 732.172 1145.46 750.705 1124.06 753.033C1102.1 755.422 1077.64 744.695 1059.17 729.319C1041.73 714.808 1038.93 691.122 1026.91 672.191C1013.86 651.634 988.294 636.313 985.577 613.436C982.824 590.258 994.773 567.277 1013.03 555.349Z" fill="#123871"/>
<path d="M1063.18 346.554C1092.52 284.707 1079.46 184.01 1161.02 220.432C1242.57 256.855 1184.88 302.276 1219.69 366.408C1254.5 430.54 1252.4 523.524 1169.72 501.385C1087.04 479.246 1041.22 546.663 989.203 489.102C937.189 431.54 1033.84 408.4 1063.18 346.554Z" fill="#EBC4BC"/>
<path fill-rule="evenodd" clip-rule="evenodd" d="M1090.9 844.259C1091.64 851.813 1092.96 859.877 1089.43 866.435C1085.74 873.26 1078.8 877.181 1071.85 879.567C1064.93 881.939 1057.32 882.776 1050.62 879.746C1044.19 876.834 1040.75 869.751 1036.66 863.634C1032.57 857.526 1026.62 851.796 1026.9 844.259C1027.17 836.776 1033.71 831.811 1038.05 825.977C1042.12 820.493 1045.38 813.996 1051.38 811.289C1057.64 808.461 1064.89 808.385 1071.24 810.992C1077.41 813.529 1081.83 819.233 1085.39 825.261C1088.78 830.991 1090.23 837.493 1090.9 844.259Z" fill="#609AC7"/>
<path fill-rule="evenodd" clip-rule="evenodd" d="M105.473 97.2741C111.04 97.6259 116.326 99.683 120.74 103.155C125.054 106.55 128.18 111.199 129.878 116.475C131.579 121.761 131.653 127.369 130.266 132.75C128.812 138.393 126.269 143.787 121.875 147.533C117.278 151.453 111.467 154.095 105.473 153.889C99.5827 153.686 94.4877 150.143 89.8565 146.432C85.388 142.851 81.6089 138.521 79.5586 133.121C77.4186 127.484 76.4424 121.296 78.1116 115.497C79.8102 109.595 83.7103 104.501 88.7651 101.135C93.6643 97.872 99.6302 96.9049 105.473 97.2741Z" fill="#123871"/>
<path fill-rule="evenodd" clip-rule="evenodd" d="M193.405 520.578C185.279 510.727 188.665 495.6 201.435 495.6C229.915 495.6 253.038 519.121 253.038 548.092C253.038 565.537 231.74 567.053 220.639 553.595L193.405 520.578Z" fill="#F2BD0D"/>
<path fill-rule="evenodd" clip-rule="evenodd" d="M120.396 671.959C126.227 625.518 185.671 634.035 215.871 669.795L253.189 713.983C261.431 724.153 262.645 739.011 252.516 747.304C238.518 758.763 220.732 765.625 201.382 765.625C156.319 765.625 119.734 728.409 119.734 682.569C119.734 678.975 119.959 675.434 120.396 671.959ZM253.189 713.983C253.187 713.981 253.189 713.98 253.191 713.982L253.256 714.062L253.189 713.983Z" fill="#123871"/>
<path fill-rule="evenodd" clip-rule="evenodd" d="M326.025 716.487C326.007 715.948 326.349 715.465 326.857 715.312C327.366 715.159 327.911 715.376 328.183 715.838C337.791 732.279 344.045 750.898 336.95 756.986C322.886 769.051 280.173 717.035 272.311 707.206C271.472 706.156 270.626 705.114 269.759 704.089L151.37 564.122L136.915 546.599C136.915 546.599 136.915 546.599 136.915 546.599C136.915 546.599 124.031 530.98 139.578 517.71C155.124 504.44 168.008 520.059 168.008 520.059C168.008 520.059 168.008 520.059 168.008 520.059L256.792 627.693C263.554 635.989 281.052 658.057 292.184 677.517C305.636 701.035 305.832 711.06 319.692 735.135C320.114 735.903 320.921 736.368 321.785 736.341C322.649 736.315 323.427 735.801 323.803 735.009C325.107 731.978 326.426 726.408 326.025 716.487Z" fill="#EBC4BC"/>
<path d="M302.708 651.911C320.303 651.911 334.567 637.402 334.567 619.503C334.567 601.604 320.303 587.094 302.708 587.094C285.113 587.094 270.849 601.604 270.849 619.503C270.849 637.402 285.113 651.911 302.708 651.911Z" fill="#609AC7"/>
<path fill-rule="evenodd" clip-rule="evenodd" d="M411.54 160.701C389.034 163.282 350.308 146.534 361.269 135.151C385.888 109.581 460.423 106.508 505.756 120.394C533.292 128.828 517.353 148.564 486.647 152.086L411.54 160.701Z" fill="#EBC4BC"/>
<path d="M70.5067 630.262C89.5779 653.018 116.117 594.891 97.2879 559.52C78.4593 524.15 5.15295 543.814 42.6889 568.796C80.2249 593.778 51.4354 607.506 70.5067 630.262Z" fill="#BBC7F6"/>
<path d="M1135.49 900.84C1135.55 930.743 1192.76 903.895 1200.91 864.534C1209.05 825.173 1140.65 791.911 1153.38 835.666C1166.11 879.421 1135.42 870.937 1135.49 900.84Z" fill="#123871"/>
<path d="M862.695 943.74C862.76 973.643 919.969 946.795 928.113 907.434C936.258 868.073 867.859 834.811 880.586 878.566C893.312 922.321 862.63 913.837 862.695 943.74Z" fill="#F2BD0D"/>
<path d="M427.366 554.038C445.958 538.981 396.815 526.299 367.679 542.353C338.543 558.406 356.582 606.416 376.628 578.605C396.674 550.794 408.775 569.095 427.366 554.038Z" fill="#F2BD0D"/>
<path d="M832.138 1018.33C855.777 1020.81 829.402 976.763 797.547 967.486C765.691 958.209 745.544 1005.34 778.996 999.751C812.448 994.159 808.5 1015.85 832.138 1018.33Z" fill="#EBC4BC"/>
<path d="M693.026 431.57C676.797 419.903 679.363 463.036 699.649 482.883C719.935 502.73 751.44 477.015 726.039 466.835C700.639 456.655 709.256 443.237 693.026 431.57Z" fill="#123871"/>
<path d="M985.051 792.771C999.607 783.431 995.773 825.092 977.067 841.638C958.362 858.184 928.227 831.626 950.59 824.86C972.953 818.095 970.495 802.111 985.051 792.771Z" fill="#BBC7F6"/>
<path fill-rule="evenodd" clip-rule="evenodd" d="M1151.01 961.678C1141.7 955.422 1132.38 949.15 1121.33 948.222C1107.56 947.066 1093 950.39 1082.16 959.103C1073.32 966.217 1069.6 977.397 1065.94 988.4C1065.27 990.415 1064.6 992.425 1063.9 994.402C1063.84 994.579 1063.78 994.755 1063.72 994.932C1059.62 1006.53 1055.49 1018.25 1056.99 1030.48C1058.53 1043.02 1064.7 1054.26 1072.46 1064.12C1080.47 1074.29 1090.19 1082.89 1102.07 1087.76C1114.76 1092.96 1129.18 1097.49 1141.99 1092.61C1150.9 1089.22 1156.16 1080.94 1161.45 1072.61C1163.66 1069.13 1165.87 1065.65 1168.36 1062.51C1170.61 1059.66 1173.07 1056.96 1175.52 1054.27C1181.88 1047.28 1188.18 1040.36 1190.56 1031.19C1194.03 1017.78 1193.33 1002.86 1186.98 990.582C1181.94 980.818 1172.46 975.076 1163.04 969.366C1160.85 968.042 1158.67 966.72 1156.54 965.35C1154.69 964.154 1152.85 962.916 1151.01 961.678ZM1127.77 986.774C1126.54 986.877 1125.32 986.979 1124.1 987.05C1123.57 987.082 1123.03 987.111 1122.5 987.141C1116.64 987.463 1110.79 987.785 1105.61 990.595C1099.66 993.824 1094.01 998.387 1091.46 1004.76C1089.54 1009.54 1090.38 1014.69 1091.22 1019.85C1091.48 1021.47 1091.74 1023.09 1091.92 1024.7C1092.11 1026.42 1092.21 1028.18 1092.3 1029.93C1092.59 1035.29 1092.87 1040.64 1095.92 1044.91C1100.07 1050.75 1106.99 1053.91 1113.87 1055.56C1120.52 1057.15 1127.33 1055.97 1133.88 1053.99C1140.42 1052.02 1147.11 1049.54 1151.46 1044.19C1155.29 1039.49 1156.26 1033.32 1157.21 1027.24C1157.33 1026.46 1157.45 1025.67 1157.58 1024.89C1157.73 1024 1157.89 1023.11 1158.04 1022.21C1159.12 1016.1 1160.22 1009.89 1158.08 1004.13C1155.56 997.344 1150.39 991.552 1144.01 988.344C1139.01 985.831 1133.37 986.304 1127.77 986.774Z" fill="#F2BD0D"/>
<path fill-rule="evenodd" clip-rule="evenodd" d="M970.984 111.172C963.328 106.883 954.747 105.215 945.946 104.507C945.473 104.469 944.998 104.43 944.523 104.392C935.482 103.651 926.136 102.886 918.104 106.919C909.302 111.339 902.832 119.343 898.826 128.168C894.849 136.931 893.731 146.794 895.749 156.173C897.554 164.563 903.093 171.309 908.598 178.013C909.029 178.538 909.46 179.063 909.888 179.588C910.916 180.847 911.927 182.142 912.94 183.44C917.992 189.915 923.114 196.479 930.867 199.187C940.36 202.503 951.088 200.923 960.441 197.248C968.767 193.977 974.655 187.224 980.479 180.544C980.855 180.113 981.231 179.682 981.606 179.252C982.32 178.437 983.045 177.623 983.772 176.808C989.315 170.589 994.956 164.259 996.367 156.204C997.98 146.995 994.956 137.569 990.341 129.381C985.934 121.563 978.919 115.618 970.984 111.172ZM955.26 132.878C952.204 131.141 948.719 130.3 945.224 130.54C941.87 130.771 938.866 132.375 936.026 134.199C933.171 136.034 930.448 138.114 928.79 141.1C927.041 144.247 925.94 147.871 926.444 151.447C926.947 155.024 929.093 158.104 931.551 160.721C933.928 163.252 936.912 165.007 940.192 166.086C943.542 167.188 947.115 167.91 950.509 166.957C953.93 165.997 956.574 163.437 958.997 160.808C961.498 158.093 964.016 155.198 964.708 151.549C965.415 147.822 964.546 143.932 962.837 140.555C961.174 137.267 958.438 134.686 955.26 132.878Z" fill="#609AC7"/>
<path fill-rule="evenodd" clip-rule="evenodd" d="M279.468 1019.78C276.176 1005.89 269.176 992.572 254.001 984.566C238.938 976.617 218.154 972.484 197.212 976.382C177.777 980 166.922 996.231 149.083 1004.1C129.318 1012.81 101.819 1010.95 88.3104 1024.4C74.7359 1037.92 77.891 1055.19 84.4263 1068.49C90.4448 1080.74 107.743 1086.46 122.38 1093.76C136.415 1100.76 149.059 1109.79 167.752 1110.06C187.076 1110.33 206.774 1103.31 224.82 1095.19C243.682 1086.71 262.528 1076.76 272.559 1062.92C282.783 1048.81 282.752 1033.65 279.468 1019.78Z" fill="#EBC4BC"/>
<path fill-rule="evenodd" clip-rule="evenodd" d="M195.902 1135.84C207.557 1134.47 220.408 1135.06 229.983 1139.94C239.566 1144.82 243.797 1153.32 246.23 1161.48C248.467 1168.98 246.242 1176.47 243.066 1183.8C239.831 1191.27 236.779 1199.37 227.825 1203.97C218.866 1208.57 206.985 1207.98 195.902 1208.01C184.767 1208.05 172.622 1208.93 163.774 1204.17C154.993 1199.44 152.611 1191.06 150.29 1183.45C148.182 1176.53 147.706 1169.4 151.151 1162.75C154.51 1156.28 161.715 1151.54 169.159 1147.06C177.249 1142.19 185.411 1137.06 195.902 1135.84Z" fill="#123871"/>
<path fill-rule="evenodd" clip-rule="evenodd" d="M937.211 1034.76C932.988 1044.38 926.902 1054.15 919.342 1059.65C911.774 1065.15 904.108 1065.04 897.47 1063.66C891.364 1062.39 887.24 1057.66 883.644 1052.25C879.982 1046.73 875.805 1041.11 876.63 1032.3C877.456 1023.48 883.112 1014.47 887.989 1005.83C892.89 997.146 897.656 987.337 904.819 982.36C911.927 977.421 918.693 978.925 924.913 980.171C930.562 981.303 935.637 983.792 938.645 989.138C941.577 994.35 941.623 1001.86 941.385 1009.45C941.126 1017.7 941.014 1026.1 937.211 1034.76Z" fill="#123871"/>
<path d="M1337.78 871.118C1301.28 921.221 1256.91 860.795 1227.9 941.77C1198.9 1022.74 1271.09 1008.8 1303.78 968.91C1336.47 929.016 1437.09 958.814 1419.91 849.098C1412.24 800.142 1370.51 826.187 1337.78 871.118Z" fill="#609AC7"/>
<path d="M1189.16 76.5193C1189.16 60.0336 1196.39 1.96931 1219.39 1.96931C1242.4 1.96931 1249.62 60.0336 1249.62 76.5193C1249.62 93.005 1236.09 106.369 1219.39 106.369C1202.7 106.369 1189.16 93.005 1189.16 76.5193Z" fill="#609AC7"/>
<path d="M1112.78 133.519C1112.78 117.034 1120.01 58.9693 1143.01 58.9693C1166.01 58.9693 1173.24 117.034 1173.24 133.519C1173.24 150.005 1159.71 163.369 1143.01 163.369C1126.32 163.369 1112.78 150.005 1112.78 133.519Z" fill="#609AC7"/>
<path d="M1146.29 -56.9393C1162.38 -54.9175 1218.14 -40.5023 1215.32 -17.2789C1212.5 5.94443 1154.96 6.11826 1138.88 4.09654C1122.8 2.07482 1111.42 -13.2274 1113.46 -30.082C1115.51 -46.9366 1130.21 -58.961 1146.29 -56.9393Z" fill="#609AC7"/>
<path d="M1069.91 0.0607532C1085.99 2.08247 1141.76 16.4977 1138.94 39.7211C1136.12 62.9444 1078.58 63.1183 1062.5 61.0965C1046.41 59.0748 1035.03 43.7726 1037.08 26.918C1039.13 10.0634 1053.83 -1.96096 1069.91 0.0607532Z" fill="#609AC7"/>
<path d="M513.735 -60.4498C435.435 26.8502 344.747 -160.5 281.638 -15.4498C218.53 129.6 339.589 97.5 436.762 76.95C533.936 56.4 684.194 109.05 696.728 15.3002C709.262 -78.4498 592.034 -147.75 513.735 -60.4498Z" fill="#EBC4BC"/>
<path d="M737.527 -41.4687C777.078 31.429 675.57 178.592 781.029 187.565C886.488 196.538 861.764 84.365 840.189 23.4735C818.615 -37.4176 913.462 -62.3394 811.775 -146.07C756.616 -191.489 684.384 -139.418 737.527 -41.4687Z" fill="#123871"/>
<path fill-rule="evenodd" clip-rule="evenodd" d="M936.119 -45.8609C947.087 -46.9997 958.985 -45.4878 967.526 -37.9705C975.893 -30.6063 977.425 -18.0314 980.452 -6.84203C983.376 3.96872 987.337 14.8706 984.772 25.787C982.111 37.1101 974.905 46.4958 966.265 53.5249C957.51 60.6475 947.075 64.9902 936.119 65.3686C924.905 65.756 913.757 62.565 904.539 55.6572C895.181 48.6443 887.653 38.6426 884.629 26.7826C881.683 15.2278 883.778 2.88017 888.292 -8.06836C892.478 -18.2212 900.508 -25.3117 908.813 -31.8743C917.147 -38.4596 925.84 -44.7936 936.119 -45.8609Z" fill="#BBC7F6"/>
<path fill-rule="evenodd" clip-rule="evenodd" d="M195.902 -64.163C207.557 -65.5269 220.408 -64.9369 229.983 -60.059C239.566 -55.1767 243.797 -46.6791 246.23 -38.5232C248.467 -31.0206 246.242 -23.5299 243.066 -16.1973C239.831 -8.73004 236.779 -0.627014 227.825 3.96953C218.866 8.56819 206.985 7.97901 195.902 8.01345C184.767 8.04804 172.622 8.93371 163.774 4.16854C154.993 -0.561089 152.611 -8.93687 150.29 -16.5526C148.182 -23.4688 147.706 -30.6021 151.151 -37.2462C154.51 -43.7241 161.715 -48.4639 169.159 -52.9411C177.249 -57.8068 185.411 -62.9353 195.902 -64.163Z" fill="#123871"/>
</g>
<defs>
<clipPath id="clip0_701_4184">
<rect width="1200" height="1200" fill="white"/>
</clipPath>
</defs>
</svg>
